%TF.GenerationSoftware,KiCad,Pcbnew,5.1.6-c6e7f7d~87~ubuntu18.04.1*%
%TF.CreationDate,2020-09-02T23:38:36+02:00*%
%TF.ProjectId,7segment,37736567-6d65-46e7-942e-6b696361645f,rev?*%
%TF.SameCoordinates,Original*%
%TF.FileFunction,Legend,Top*%
%TF.FilePolarity,Positive*%
%FSLAX46Y46*%
G04 Gerber Fmt 4.6, Leading zero omitted, Abs format (unit mm)*
G04 Created by KiCad (PCBNEW 5.1.6-c6e7f7d~87~ubuntu18.04.1) date 2020-09-02 23:38:36*
%MOMM*%
%LPD*%
G01*
G04 APERTURE LIST*
%ADD10C,0.120000*%
%ADD11C,0.150000*%
G04 APERTURE END LIST*
D10*
%TO.C,D1*%
X144770000Y-35000000D02*
G75*
G03*
X144770000Y-35000000I-2500000J0D01*
G01*
X139710000Y-33455000D02*
X139710000Y-36545000D01*
X145260000Y-35000462D02*
G75*
G03*
X139710000Y-33455170I-2990000J462D01*
G01*
X145260000Y-34999538D02*
G75*
G02*
X139710000Y-36544830I-2990000J-462D01*
G01*
%TO.C,D2*%
X140760000Y-44999538D02*
G75*
G02*
X135210000Y-46544830I-2990000J-462D01*
G01*
X140760000Y-45000462D02*
G75*
G03*
X135210000Y-43455170I-2990000J462D01*
G01*
X135210000Y-43455000D02*
X135210000Y-46545000D01*
X140270000Y-45000000D02*
G75*
G03*
X140270000Y-45000000I-2500000J0D01*
G01*
%TO.C,D3*%
X149770000Y-45000000D02*
G75*
G03*
X149770000Y-45000000I-2500000J0D01*
G01*
X144710000Y-43455000D02*
X144710000Y-46545000D01*
X150260000Y-45000462D02*
G75*
G03*
X144710000Y-43455170I-2990000J462D01*
G01*
X150260000Y-44999538D02*
G75*
G02*
X144710000Y-46544830I-2990000J-462D01*
G01*
%TO.C,D4*%
X140760000Y-74999538D02*
G75*
G02*
X135210000Y-76544830I-2990000J-462D01*
G01*
X140760000Y-75000462D02*
G75*
G03*
X135210000Y-73455170I-2990000J462D01*
G01*
X135210000Y-73455000D02*
X135210000Y-76545000D01*
X140270000Y-75000000D02*
G75*
G03*
X140270000Y-75000000I-2500000J0D01*
G01*
%TO.C,D5*%
X140270000Y-55000000D02*
G75*
G03*
X140270000Y-55000000I-2500000J0D01*
G01*
X135210000Y-53455000D02*
X135210000Y-56545000D01*
X140760000Y-55000462D02*
G75*
G03*
X135210000Y-53455170I-2990000J462D01*
G01*
X140760000Y-54999538D02*
G75*
G02*
X135210000Y-56544830I-2990000J-462D01*
G01*
%TO.C,D6*%
X140760000Y-64999538D02*
G75*
G02*
X135210000Y-66544830I-2990000J-462D01*
G01*
X140760000Y-65000462D02*
G75*
G03*
X135210000Y-63455170I-2990000J462D01*
G01*
X135210000Y-63455000D02*
X135210000Y-66545000D01*
X140270000Y-65000000D02*
G75*
G03*
X140270000Y-65000000I-2500000J0D01*
G01*
%TO.C,D7*%
X149770000Y-75000000D02*
G75*
G03*
X149770000Y-75000000I-2500000J0D01*
G01*
X144710000Y-73455000D02*
X144710000Y-76545000D01*
X150260000Y-75000462D02*
G75*
G03*
X144710000Y-73455170I-2990000J462D01*
G01*
X150260000Y-74999538D02*
G75*
G02*
X144710000Y-76544830I-2990000J-462D01*
G01*
%TO.C,D8*%
X150260000Y-64999538D02*
G75*
G02*
X144710000Y-66544830I-2990000J-462D01*
G01*
X150260000Y-65000462D02*
G75*
G03*
X144710000Y-63455170I-2990000J462D01*
G01*
X144710000Y-63455000D02*
X144710000Y-66545000D01*
X149770000Y-65000000D02*
G75*
G03*
X149770000Y-65000000I-2500000J0D01*
G01*
%TO.C,D9*%
X149770000Y-55000000D02*
G75*
G03*
X149770000Y-55000000I-2500000J0D01*
G01*
X144710000Y-53455000D02*
X144710000Y-56545000D01*
X150260000Y-55000462D02*
G75*
G03*
X144710000Y-53455170I-2990000J462D01*
G01*
X150260000Y-54999538D02*
G75*
G02*
X144710000Y-56544830I-2990000J-462D01*
G01*
%TO.C,D10*%
X145260000Y-84999538D02*
G75*
G02*
X139710000Y-86544830I-2990000J-462D01*
G01*
X145260000Y-85000462D02*
G75*
G03*
X139710000Y-83455170I-2990000J462D01*
G01*
X139710000Y-83455000D02*
X139710000Y-86545000D01*
X144770000Y-85000000D02*
G75*
G03*
X144770000Y-85000000I-2500000J0D01*
G01*
%TO.C,D1*%
D11*
X141531904Y-31492380D02*
X141531904Y-30492380D01*
X141770000Y-30492380D01*
X141912857Y-30540000D01*
X142008095Y-30635238D01*
X142055714Y-30730476D01*
X142103333Y-30920952D01*
X142103333Y-31063809D01*
X142055714Y-31254285D01*
X142008095Y-31349523D01*
X141912857Y-31444761D01*
X141770000Y-31492380D01*
X141531904Y-31492380D01*
X143055714Y-31492380D02*
X142484285Y-31492380D01*
X142770000Y-31492380D02*
X142770000Y-30492380D01*
X142674761Y-30635238D01*
X142579523Y-30730476D01*
X142484285Y-30778095D01*
%TO.C,D2*%
X137031904Y-41492380D02*
X137031904Y-40492380D01*
X137270000Y-40492380D01*
X137412857Y-40540000D01*
X137508095Y-40635238D01*
X137555714Y-40730476D01*
X137603333Y-40920952D01*
X137603333Y-41063809D01*
X137555714Y-41254285D01*
X137508095Y-41349523D01*
X137412857Y-41444761D01*
X137270000Y-41492380D01*
X137031904Y-41492380D01*
X137984285Y-40587619D02*
X138031904Y-40540000D01*
X138127142Y-40492380D01*
X138365238Y-40492380D01*
X138460476Y-40540000D01*
X138508095Y-40587619D01*
X138555714Y-40682857D01*
X138555714Y-40778095D01*
X138508095Y-40920952D01*
X137936666Y-41492380D01*
X138555714Y-41492380D01*
%TO.C,D3*%
X146531904Y-41492380D02*
X146531904Y-40492380D01*
X146770000Y-40492380D01*
X146912857Y-40540000D01*
X147008095Y-40635238D01*
X147055714Y-40730476D01*
X147103333Y-40920952D01*
X147103333Y-41063809D01*
X147055714Y-41254285D01*
X147008095Y-41349523D01*
X146912857Y-41444761D01*
X146770000Y-41492380D01*
X146531904Y-41492380D01*
X147436666Y-40492380D02*
X148055714Y-40492380D01*
X147722380Y-40873333D01*
X147865238Y-40873333D01*
X147960476Y-40920952D01*
X148008095Y-40968571D01*
X148055714Y-41063809D01*
X148055714Y-41301904D01*
X148008095Y-41397142D01*
X147960476Y-41444761D01*
X147865238Y-41492380D01*
X147579523Y-41492380D01*
X147484285Y-41444761D01*
X147436666Y-41397142D01*
%TO.C,D4*%
X137031904Y-71492380D02*
X137031904Y-70492380D01*
X137270000Y-70492380D01*
X137412857Y-70540000D01*
X137508095Y-70635238D01*
X137555714Y-70730476D01*
X137603333Y-70920952D01*
X137603333Y-71063809D01*
X137555714Y-71254285D01*
X137508095Y-71349523D01*
X137412857Y-71444761D01*
X137270000Y-71492380D01*
X137031904Y-71492380D01*
X138460476Y-70825714D02*
X138460476Y-71492380D01*
X138222380Y-70444761D02*
X137984285Y-71159047D01*
X138603333Y-71159047D01*
%TO.C,D5*%
X137031904Y-51492380D02*
X137031904Y-50492380D01*
X137270000Y-50492380D01*
X137412857Y-50540000D01*
X137508095Y-50635238D01*
X137555714Y-50730476D01*
X137603333Y-50920952D01*
X137603333Y-51063809D01*
X137555714Y-51254285D01*
X137508095Y-51349523D01*
X137412857Y-51444761D01*
X137270000Y-51492380D01*
X137031904Y-51492380D01*
X138508095Y-50492380D02*
X138031904Y-50492380D01*
X137984285Y-50968571D01*
X138031904Y-50920952D01*
X138127142Y-50873333D01*
X138365238Y-50873333D01*
X138460476Y-50920952D01*
X138508095Y-50968571D01*
X138555714Y-51063809D01*
X138555714Y-51301904D01*
X138508095Y-51397142D01*
X138460476Y-51444761D01*
X138365238Y-51492380D01*
X138127142Y-51492380D01*
X138031904Y-51444761D01*
X137984285Y-51397142D01*
%TO.C,D6*%
X137031904Y-61492380D02*
X137031904Y-60492380D01*
X137270000Y-60492380D01*
X137412857Y-60540000D01*
X137508095Y-60635238D01*
X137555714Y-60730476D01*
X137603333Y-60920952D01*
X137603333Y-61063809D01*
X137555714Y-61254285D01*
X137508095Y-61349523D01*
X137412857Y-61444761D01*
X137270000Y-61492380D01*
X137031904Y-61492380D01*
X138460476Y-60492380D02*
X138270000Y-60492380D01*
X138174761Y-60540000D01*
X138127142Y-60587619D01*
X138031904Y-60730476D01*
X137984285Y-60920952D01*
X137984285Y-61301904D01*
X138031904Y-61397142D01*
X138079523Y-61444761D01*
X138174761Y-61492380D01*
X138365238Y-61492380D01*
X138460476Y-61444761D01*
X138508095Y-61397142D01*
X138555714Y-61301904D01*
X138555714Y-61063809D01*
X138508095Y-60968571D01*
X138460476Y-60920952D01*
X138365238Y-60873333D01*
X138174761Y-60873333D01*
X138079523Y-60920952D01*
X138031904Y-60968571D01*
X137984285Y-61063809D01*
%TO.C,D7*%
X146531904Y-71492380D02*
X146531904Y-70492380D01*
X146770000Y-70492380D01*
X146912857Y-70540000D01*
X147008095Y-70635238D01*
X147055714Y-70730476D01*
X147103333Y-70920952D01*
X147103333Y-71063809D01*
X147055714Y-71254285D01*
X147008095Y-71349523D01*
X146912857Y-71444761D01*
X146770000Y-71492380D01*
X146531904Y-71492380D01*
X147436666Y-70492380D02*
X148103333Y-70492380D01*
X147674761Y-71492380D01*
%TO.C,D8*%
X146531904Y-61492380D02*
X146531904Y-60492380D01*
X146770000Y-60492380D01*
X146912857Y-60540000D01*
X147008095Y-60635238D01*
X147055714Y-60730476D01*
X147103333Y-60920952D01*
X147103333Y-61063809D01*
X147055714Y-61254285D01*
X147008095Y-61349523D01*
X146912857Y-61444761D01*
X146770000Y-61492380D01*
X146531904Y-61492380D01*
X147674761Y-60920952D02*
X147579523Y-60873333D01*
X147531904Y-60825714D01*
X147484285Y-60730476D01*
X147484285Y-60682857D01*
X147531904Y-60587619D01*
X147579523Y-60540000D01*
X147674761Y-60492380D01*
X147865238Y-60492380D01*
X147960476Y-60540000D01*
X148008095Y-60587619D01*
X148055714Y-60682857D01*
X148055714Y-60730476D01*
X148008095Y-60825714D01*
X147960476Y-60873333D01*
X147865238Y-60920952D01*
X147674761Y-60920952D01*
X147579523Y-60968571D01*
X147531904Y-61016190D01*
X147484285Y-61111428D01*
X147484285Y-61301904D01*
X147531904Y-61397142D01*
X147579523Y-61444761D01*
X147674761Y-61492380D01*
X147865238Y-61492380D01*
X147960476Y-61444761D01*
X148008095Y-61397142D01*
X148055714Y-61301904D01*
X148055714Y-61111428D01*
X148008095Y-61016190D01*
X147960476Y-60968571D01*
X147865238Y-60920952D01*
%TO.C,D9*%
X146531904Y-51492380D02*
X146531904Y-50492380D01*
X146770000Y-50492380D01*
X146912857Y-50540000D01*
X147008095Y-50635238D01*
X147055714Y-50730476D01*
X147103333Y-50920952D01*
X147103333Y-51063809D01*
X147055714Y-51254285D01*
X147008095Y-51349523D01*
X146912857Y-51444761D01*
X146770000Y-51492380D01*
X146531904Y-51492380D01*
X147579523Y-51492380D02*
X147770000Y-51492380D01*
X147865238Y-51444761D01*
X147912857Y-51397142D01*
X148008095Y-51254285D01*
X148055714Y-51063809D01*
X148055714Y-50682857D01*
X148008095Y-50587619D01*
X147960476Y-50540000D01*
X147865238Y-50492380D01*
X147674761Y-50492380D01*
X147579523Y-50540000D01*
X147531904Y-50587619D01*
X147484285Y-50682857D01*
X147484285Y-50920952D01*
X147531904Y-51016190D01*
X147579523Y-51063809D01*
X147674761Y-51111428D01*
X147865238Y-51111428D01*
X147960476Y-51063809D01*
X148008095Y-51016190D01*
X148055714Y-50920952D01*
%TO.C,D10*%
X141055714Y-81492380D02*
X141055714Y-80492380D01*
X141293809Y-80492380D01*
X141436666Y-80540000D01*
X141531904Y-80635238D01*
X141579523Y-80730476D01*
X141627142Y-80920952D01*
X141627142Y-81063809D01*
X141579523Y-81254285D01*
X141531904Y-81349523D01*
X141436666Y-81444761D01*
X141293809Y-81492380D01*
X141055714Y-81492380D01*
X142579523Y-81492380D02*
X142008095Y-81492380D01*
X142293809Y-81492380D02*
X142293809Y-80492380D01*
X142198571Y-80635238D01*
X142103333Y-80730476D01*
X142008095Y-80778095D01*
X143198571Y-80492380D02*
X143293809Y-80492380D01*
X143389047Y-80540000D01*
X143436666Y-80587619D01*
X143484285Y-80682857D01*
X143531904Y-80873333D01*
X143531904Y-81111428D01*
X143484285Y-81301904D01*
X143436666Y-81397142D01*
X143389047Y-81444761D01*
X143293809Y-81492380D01*
X143198571Y-81492380D01*
X143103333Y-81444761D01*
X143055714Y-81397142D01*
X143008095Y-81301904D01*
X142960476Y-81111428D01*
X142960476Y-80873333D01*
X143008095Y-80682857D01*
X143055714Y-80587619D01*
X143103333Y-80540000D01*
X143198571Y-80492380D01*
%TD*%
M02*
