M48
; DRILL file {KiCad 5.1.6-c6e7f7d~87~ubuntu18.04.1} date Wed Sep  2 23:38:42 2020
; FORMAT={-:-/ absolute / inch / decimal}
; #@! TF.CreationDate,2020-09-02T23:38:42+02:00
; #@! TF.GenerationSoftware,Kicad,Pcbnew,5.1.6-c6e7f7d~87~ubuntu18.04.1
; #@! TF.FileFunction,Plated,1,2,PTH
FMAT,2
INCH
T1C0.0354
%
G90
G05
T1
X5.748Y-2.1654
X5.848Y-2.1654
X5.374Y-2.1654
X5.474Y-2.1654
X5.374Y-2.9528
X5.474Y-2.9528
X5.374Y-1.7717
X5.474Y-1.7717
X5.748Y-2.5591
X5.848Y-2.5591
X5.5512Y-3.3465
X5.6512Y-3.3465
X5.748Y-2.9528
X5.848Y-2.9528
X5.5512Y-1.378
X5.6512Y-1.378
X5.748Y-1.7717
X5.848Y-1.7717
X5.374Y-2.5591
X5.474Y-2.5591
T0
M30
