%TF.GenerationSoftware,KiCad,Pcbnew,5.1.7-a382d34a8~87~ubuntu20.04.1*%
%TF.CreationDate,2020-10-21T10:00:52+02:00*%
%TF.ProjectId,7segment_part,37736567-6d65-46e7-945f-706172742e6b,rev?*%
%TF.SameCoordinates,Original*%
%TF.FileFunction,Soldermask,Top*%
%TF.FilePolarity,Negative*%
%FSLAX46Y46*%
G04 Gerber Fmt 4.6, Leading zero omitted, Abs format (unit mm)*
G04 Created by KiCad (PCBNEW 5.1.7-a382d34a8~87~ubuntu20.04.1) date 2020-10-21 10:00:52*
%MOMM*%
%LPD*%
G01*
G04 APERTURE LIST*
%ADD10C,1.900000*%
%ADD11O,1.800000X1.800000*%
G04 APERTURE END LIST*
D10*
%TO.C,Dh2*%
X169418000Y-79040000D03*
G36*
G01*
X168518000Y-75550000D02*
X170318000Y-75550000D01*
G75*
G02*
X170368000Y-75600000I0J-50000D01*
G01*
X170368000Y-77400000D01*
G75*
G02*
X170318000Y-77450000I-50000J0D01*
G01*
X168518000Y-77450000D01*
G75*
G02*
X168468000Y-77400000I0J50000D01*
G01*
X168468000Y-75600000D01*
G75*
G02*
X168518000Y-75550000I50000J0D01*
G01*
G37*
%TD*%
%TO.C,Rh1*%
G36*
G01*
X165628771Y-113603000D02*
X164317229Y-113603000D01*
G75*
G02*
X164048000Y-113333771I0J269229D01*
G01*
X164048000Y-112472229D01*
G75*
G02*
X164317229Y-112203000I269229J0D01*
G01*
X165628771Y-112203000D01*
G75*
G02*
X165898000Y-112472229I0J-269229D01*
G01*
X165898000Y-113333771D01*
G75*
G02*
X165628771Y-113603000I-269229J0D01*
G01*
G37*
G36*
G01*
X165628771Y-116703000D02*
X164317229Y-116703000D01*
G75*
G02*
X164048000Y-116433771I0J269229D01*
G01*
X164048000Y-115572229D01*
G75*
G02*
X164317229Y-115303000I269229J0D01*
G01*
X165628771Y-115303000D01*
G75*
G02*
X165898000Y-115572229I0J-269229D01*
G01*
X165898000Y-116433771D01*
G75*
G02*
X165628771Y-116703000I-269229J0D01*
G01*
G37*
%TD*%
%TO.C,JP2*%
G36*
G01*
X169747500Y-86239500D02*
X171247500Y-86239500D01*
G75*
G02*
X171297500Y-86289500I0J-50000D01*
G01*
X171297500Y-87289500D01*
G75*
G02*
X171247500Y-87339500I-50000J0D01*
G01*
X169747500Y-87339500D01*
G75*
G02*
X169697500Y-87289500I0J50000D01*
G01*
X169697500Y-86289500D01*
G75*
G02*
X169747500Y-86239500I50000J0D01*
G01*
G37*
G36*
G01*
X169747500Y-87539500D02*
X171247500Y-87539500D01*
G75*
G02*
X171297500Y-87589500I0J-50000D01*
G01*
X171297500Y-88589500D01*
G75*
G02*
X171247500Y-88639500I-50000J0D01*
G01*
X169747500Y-88639500D01*
G75*
G02*
X169697500Y-88589500I0J50000D01*
G01*
X169697500Y-87589500D01*
G75*
G02*
X169747500Y-87539500I50000J0D01*
G01*
G37*
%TD*%
%TO.C,JP1*%
G36*
G01*
X168072500Y-87384500D02*
X166572500Y-87384500D01*
G75*
G02*
X166522500Y-87334500I0J50000D01*
G01*
X166522500Y-86334500D01*
G75*
G02*
X166572500Y-86284500I50000J0D01*
G01*
X168072500Y-86284500D01*
G75*
G02*
X168122500Y-86334500I0J-50000D01*
G01*
X168122500Y-87334500D01*
G75*
G02*
X168072500Y-87384500I-50000J0D01*
G01*
G37*
G36*
G01*
X168072500Y-86084500D02*
X166572500Y-86084500D01*
G75*
G02*
X166522500Y-86034500I0J50000D01*
G01*
X166522500Y-85034500D01*
G75*
G02*
X166572500Y-84984500I50000J0D01*
G01*
X168072500Y-84984500D01*
G75*
G02*
X168122500Y-85034500I0J-50000D01*
G01*
X168122500Y-86034500D01*
G75*
G02*
X168072500Y-86084500I-50000J0D01*
G01*
G37*
%TD*%
D11*
%TO.C,J4*%
X180340000Y-103280000D03*
X180340000Y-100740000D03*
X180340000Y-98200000D03*
X180340000Y-95660000D03*
X180340000Y-93120000D03*
X180340000Y-90580000D03*
X180340000Y-88040000D03*
G36*
G01*
X179440000Y-86350000D02*
X179440000Y-84650000D01*
G75*
G02*
X179490000Y-84600000I50000J0D01*
G01*
X181190000Y-84600000D01*
G75*
G02*
X181240000Y-84650000I0J-50000D01*
G01*
X181240000Y-86350000D01*
G75*
G02*
X181190000Y-86400000I-50000J0D01*
G01*
X179490000Y-86400000D01*
G75*
G02*
X179440000Y-86350000I0J50000D01*
G01*
G37*
%TD*%
%TO.C,J2*%
G36*
G01*
X179440000Y-59850000D02*
X179440000Y-58150000D01*
G75*
G02*
X179490000Y-58100000I50000J0D01*
G01*
X181190000Y-58100000D01*
G75*
G02*
X181240000Y-58150000I0J-50000D01*
G01*
X181240000Y-59850000D01*
G75*
G02*
X181190000Y-59900000I-50000J0D01*
G01*
X179490000Y-59900000D01*
G75*
G02*
X179440000Y-59850000I0J50000D01*
G01*
G37*
X180340000Y-61540000D03*
X180340000Y-64080000D03*
X180340000Y-66620000D03*
X180340000Y-69160000D03*
X180340000Y-71700000D03*
X180340000Y-74240000D03*
X180340000Y-76780000D03*
%TD*%
D10*
%TO.C,Dh4*%
X169418000Y-116040000D03*
G36*
G01*
X168518000Y-112550000D02*
X170318000Y-112550000D01*
G75*
G02*
X170368000Y-112600000I0J-50000D01*
G01*
X170368000Y-114400000D01*
G75*
G02*
X170318000Y-114450000I-50000J0D01*
G01*
X168518000Y-114450000D01*
G75*
G02*
X168468000Y-114400000I0J50000D01*
G01*
X168468000Y-112600000D01*
G75*
G02*
X168518000Y-112550000I50000J0D01*
G01*
G37*
%TD*%
%TO.C,Dh3*%
X169418000Y-109540000D03*
G36*
G01*
X168518000Y-106050000D02*
X170318000Y-106050000D01*
G75*
G02*
X170368000Y-106100000I0J-50000D01*
G01*
X170368000Y-107900000D01*
G75*
G02*
X170318000Y-107950000I-50000J0D01*
G01*
X168518000Y-107950000D01*
G75*
G02*
X168468000Y-107900000I0J50000D01*
G01*
X168468000Y-106100000D01*
G75*
G02*
X168518000Y-106050000I50000J0D01*
G01*
G37*
%TD*%
%TO.C,Dh1*%
X169418000Y-72540000D03*
G36*
G01*
X168518000Y-69050000D02*
X170318000Y-69050000D01*
G75*
G02*
X170368000Y-69100000I0J-50000D01*
G01*
X170368000Y-70900000D01*
G75*
G02*
X170318000Y-70950000I-50000J0D01*
G01*
X168518000Y-70950000D01*
G75*
G02*
X168468000Y-70900000I0J50000D01*
G01*
X168468000Y-69100000D01*
G75*
G02*
X168518000Y-69050000I50000J0D01*
G01*
G37*
%TD*%
D11*
%TO.C,J3*%
X158496000Y-103280000D03*
X158496000Y-100740000D03*
X158496000Y-98200000D03*
X158496000Y-95660000D03*
X158496000Y-93120000D03*
X158496000Y-90580000D03*
X158496000Y-88040000D03*
G36*
G01*
X157596000Y-86350000D02*
X157596000Y-84650000D01*
G75*
G02*
X157646000Y-84600000I50000J0D01*
G01*
X159346000Y-84600000D01*
G75*
G02*
X159396000Y-84650000I0J-50000D01*
G01*
X159396000Y-86350000D01*
G75*
G02*
X159346000Y-86400000I-50000J0D01*
G01*
X157646000Y-86400000D01*
G75*
G02*
X157596000Y-86350000I0J50000D01*
G01*
G37*
%TD*%
%TO.C,J1*%
X158496000Y-76780000D03*
X158496000Y-74240000D03*
X158496000Y-71700000D03*
X158496000Y-69160000D03*
X158496000Y-66620000D03*
X158496000Y-64080000D03*
X158496000Y-61540000D03*
G36*
G01*
X157596000Y-59850000D02*
X157596000Y-58150000D01*
G75*
G02*
X157646000Y-58100000I50000J0D01*
G01*
X159346000Y-58100000D01*
G75*
G02*
X159396000Y-58150000I0J-50000D01*
G01*
X159396000Y-59850000D01*
G75*
G02*
X159346000Y-59900000I-50000J0D01*
G01*
X157646000Y-59900000D01*
G75*
G02*
X157596000Y-59850000I0J50000D01*
G01*
G37*
%TD*%
M02*
