M48
; DRILL file {KiCad 5.1.7-a382d34a8~87~ubuntu20.04.1} date Wed Oct 21 10:00:57 2020
; FORMAT={-:-/ absolute / inch / decimal}
; #@! TF.CreationDate,2020-10-21T10:00:57+02:00
; #@! TF.GenerationSoftware,Kicad,Pcbnew,5.1.7-a382d34a8~87~ubuntu20.04.1
; #@! TF.FileFunction,Plated,1,2,PTH
FMAT,2
INCH
T1C0.0157
T2C0.0354
T3C0.0394
T4C0.1260
%
G90
G05
T1
X6.505Y-3.4175
X6.505Y-4.37
T2
X6.67Y-4.4685
X6.67Y-4.5685
X6.67Y-4.2126
X6.67Y-4.3126
X6.67Y-3.0118
X6.67Y-3.1118
X6.67Y-2.7559
X6.67Y-2.8559
T3
X7.1Y-2.3228
X7.1Y-2.4228
X7.1Y-2.5228
X7.1Y-2.6228
X7.1Y-2.7228
X7.1Y-2.8228
X7.1Y-2.9228
X7.1Y-3.0228
X7.1Y-3.3661
X7.1Y-3.4661
X7.1Y-3.5661
X7.1Y-3.6661
X7.1Y-3.7661
X7.1Y-3.8661
X7.1Y-3.9661
X7.1Y-4.0661
X6.24Y-3.3661
X6.24Y-3.4661
X6.24Y-3.5661
X6.24Y-3.6661
X6.24Y-3.7661
X6.24Y-3.8661
X6.24Y-3.9661
X6.24Y-4.0661
X6.24Y-2.3228
X6.24Y-2.4228
X6.24Y-2.5228
X6.24Y-2.6228
X6.24Y-2.7228
X6.24Y-2.8228
X6.24Y-2.9228
X6.24Y-3.0228
T4
X6.3386Y-1.1811
X6.3386Y-6.1024
X7.0006Y-1.1811
X7.0006Y-6.1024
T0
M30
