M48
; DRILL file {KiCad 5.1.7-a382d34a8~87~ubuntu20.04.1} date Wed Oct 21 09:53:49 2020
; FORMAT={-:-/ absolute / inch / decimal}
; #@! TF.CreationDate,2020-10-21T09:53:49+02:00
; #@! TF.GenerationSoftware,Kicad,Pcbnew,5.1.7-a382d34a8~87~ubuntu20.04.1
; #@! TF.FileFunction,Plated,1,2,PTH
FMAT,2
INCH
T1C0.0157
T2C0.0354
T3C0.0394
T4C0.1260
%
G90
G05
T1
X3.6813Y-2.6563
X4.125Y-3.7228
X4.3Y-3.7543
X4.4503Y-3.7858
X4.6Y-3.8173
X4.7567Y-3.8488
X5.45Y-2.4
X5.45Y-3.275
X5.65Y-2.4
X5.85Y-3.45
X5.8571Y-2.9071
T2
X5.7283Y-4.2126
X5.7283Y-4.3126
X4.1913Y-6.0433
X4.2913Y-6.0433
X5.7283Y-1.7323
X5.7283Y-1.8323
X5.7283Y-2.2441
X5.7283Y-2.3441
X3.5236Y-5.7465
X3.5236Y-5.8465
X3.5236Y-4.9787
X3.5236Y-5.0787
X4.1929Y-3.6614
X4.2929Y-3.6614
X3.5236Y-1.7307
X3.5236Y-1.8307
X5.7283Y-5.2362
X5.7283Y-5.3362
X4.7031Y-6.0433
X4.8031Y-6.0433
X3.5236Y-4.211
X3.5236Y-4.311
X4.9606Y-1.2795
X5.0606Y-1.2795
X5.7283Y-5.4921
X5.7283Y-5.5921
X5.7283Y-4.9803
X5.7283Y-5.0803
X5.215Y-6.0433
X5.315Y-6.0433
X5.7283Y-1.9882
X5.7283Y-2.0882
X5.7283Y-2.7559
X5.7283Y-2.8559
X4.7047Y-1.2795
X4.8047Y-1.2795
X3.5236Y-4.4669
X3.5236Y-4.5669
X5.7283Y-2.5
X5.7283Y-2.6
X4.9606Y-3.6614
X5.0606Y-3.6614
X4.1929Y-1.2795
X4.2929Y-1.2795
X3.9354Y-6.0433
X4.0354Y-6.0433
X5.4724Y-1.2795
X5.5724Y-1.2795
X3.5236Y-5.2346
X3.5236Y-5.3346
X5.7283Y-1.4764
X5.7283Y-1.5764
X5.2165Y-1.2795
X5.3165Y-1.2795
X3.5236Y-1.4748
X3.5236Y-1.5748
X3.5236Y-4.7228
X3.5236Y-4.8228
X3.5236Y-3.0102
X3.5236Y-3.1102
X5.7283Y-4.4685
X5.7283Y-4.5685
X4.4472Y-6.0433
X4.5472Y-6.0433
X3.5236Y-3.2661
X3.5236Y-3.3661
X3.5236Y-3.9551
X3.5236Y-4.0551
X3.937Y-1.2795
X4.037Y-1.2795
X3.5236Y-2.7543
X3.5236Y-2.8543
X4.4488Y-1.2795
X4.5488Y-1.2795
X5.4724Y-3.6614
X5.5724Y-3.6614
X4.4488Y-3.6614
X4.5488Y-3.6614
X4.7047Y-3.6614
X4.8047Y-3.6614
X3.5236Y-5.4906
X3.5236Y-5.5906
X5.4709Y-6.0433
X5.5709Y-6.0433
X5.7283Y-5.748
X5.7283Y-5.848
X4.9591Y-6.0433
X5.0591Y-6.0433
X3.5236Y-2.4984
X3.5236Y-2.5984
X5.7283Y-3.0118
X5.7283Y-3.1118
X3.6795Y-6.0433
X3.7795Y-6.0433
X3.5236Y-1.9866
X3.5236Y-2.0866
X5.7283Y-3.9567
X5.7283Y-4.0567
X3.937Y-3.6614
X4.037Y-3.6614
X5.2165Y-3.6614
X5.3165Y-3.6614
X3.5236Y-2.2425
X3.5236Y-2.3425
X3.6811Y-3.6614
X3.7811Y-3.6614
X3.6811Y-1.2795
X3.7811Y-1.2795
X5.7283Y-4.7244
X5.7283Y-4.8244
X5.7283Y-3.2677
X5.7283Y-3.3677
T3
X6.0039Y-2.3228
X6.0039Y-2.4228
X6.0039Y-2.5228
X6.0039Y-2.6228
X6.0039Y-2.7228
X6.0039Y-2.8228
X6.0039Y-2.9228
X6.0039Y-3.0228
X3.248Y-2.3228
X3.248Y-2.4228
X3.248Y-2.5228
X3.248Y-2.6228
X3.248Y-2.7228
X3.248Y-2.8228
X3.248Y-2.9228
X3.248Y-3.0228
X6.0039Y-3.3661
X6.0039Y-3.4661
X6.0039Y-3.5661
X6.0039Y-3.6661
X6.0039Y-3.7661
X6.0039Y-3.8661
X6.0039Y-3.9661
X6.0039Y-4.0661
X3.248Y-3.3661
X3.248Y-3.4661
X3.248Y-3.5661
X3.248Y-3.6661
X3.248Y-3.7661
X3.248Y-3.8661
X3.248Y-3.9661
X3.248Y-4.0661
T4
X3.3465Y-1.1811
X3.3465Y-6.1024
X5.9055Y-1.1811
X5.9055Y-6.1024
T0
M30
