%TF.GenerationSoftware,KiCad,Pcbnew,5.1.7-a382d34a8~87~ubuntu20.04.1*%
%TF.CreationDate,2020-10-21T09:53:45+02:00*%
%TF.ProjectId,7segment_part,37736567-6d65-46e7-945f-706172742e6b,rev?*%
%TF.SameCoordinates,Original*%
%TF.FileFunction,Copper,L1,Top*%
%TF.FilePolarity,Positive*%
%FSLAX46Y46*%
G04 Gerber Fmt 4.6, Leading zero omitted, Abs format (unit mm)*
G04 Created by KiCad (PCBNEW 5.1.7-a382d34a8~87~ubuntu20.04.1) date 2020-10-21 09:53:45*
%MOMM*%
%LPD*%
G01*
G04 APERTURE LIST*
%TA.AperFunction,ComponentPad*%
%ADD10C,1.800000*%
%TD*%
%TA.AperFunction,ComponentPad*%
%ADD11R,1.800000X1.800000*%
%TD*%
%TA.AperFunction,ComponentPad*%
%ADD12O,1.700000X1.700000*%
%TD*%
%TA.AperFunction,ComponentPad*%
%ADD13R,1.700000X1.700000*%
%TD*%
%TA.AperFunction,SMDPad,CuDef*%
%ADD14R,1.500000X1.000000*%
%TD*%
%TA.AperFunction,ViaPad*%
%ADD15C,4.000000*%
%TD*%
%TA.AperFunction,ViaPad*%
%ADD16C,0.800000*%
%TD*%
%TA.AperFunction,Conductor*%
%ADD17C,0.400000*%
%TD*%
G04 APERTURE END LIST*
%TO.P,Rg2,2*%
%TO.N,Net-(JP1-Pad1)*%
%TA.AperFunction,SMDPad,CuDef*%
G36*
G01*
X95875000Y-146202500D02*
X94625000Y-146202500D01*
G75*
G02*
X94375000Y-145952500I0J250000D01*
G01*
X94375000Y-145152500D01*
G75*
G02*
X94625000Y-144902500I250000J0D01*
G01*
X95875000Y-144902500D01*
G75*
G02*
X96125000Y-145152500I0J-250000D01*
G01*
X96125000Y-145952500D01*
G75*
G02*
X95875000Y-146202500I-250000J0D01*
G01*
G37*
%TD.AperFunction*%
%TO.P,Rg2,1*%
%TO.N,Net-(Dg8-Pad2)*%
%TA.AperFunction,SMDPad,CuDef*%
G36*
G01*
X95875000Y-149302500D02*
X94625000Y-149302500D01*
G75*
G02*
X94375000Y-149052500I0J250000D01*
G01*
X94375000Y-148252500D01*
G75*
G02*
X94625000Y-148002500I250000J0D01*
G01*
X95875000Y-148002500D01*
G75*
G02*
X96125000Y-148252500I0J-250000D01*
G01*
X96125000Y-149052500D01*
G75*
G02*
X95875000Y-149302500I-250000J0D01*
G01*
G37*
%TD.AperFunction*%
%TD*%
%TO.P,Rg1,2*%
%TO.N,Net-(JP1-Pad1)*%
%TA.AperFunction,SMDPad,CuDef*%
G36*
G01*
X121550000Y-149215000D02*
X121550000Y-147965000D01*
G75*
G02*
X121800000Y-147715000I250000J0D01*
G01*
X122600000Y-147715000D01*
G75*
G02*
X122850000Y-147965000I0J-250000D01*
G01*
X122850000Y-149215000D01*
G75*
G02*
X122600000Y-149465000I-250000J0D01*
G01*
X121800000Y-149465000D01*
G75*
G02*
X121550000Y-149215000I0J250000D01*
G01*
G37*
%TD.AperFunction*%
%TO.P,Rg1,1*%
%TO.N,Net-(Dg4-Pad2)*%
%TA.AperFunction,SMDPad,CuDef*%
G36*
G01*
X118450000Y-149215000D02*
X118450000Y-147965000D01*
G75*
G02*
X118700000Y-147715000I250000J0D01*
G01*
X119500000Y-147715000D01*
G75*
G02*
X119750000Y-147965000I0J-250000D01*
G01*
X119750000Y-149215000D01*
G75*
G02*
X119500000Y-149465000I-250000J0D01*
G01*
X118700000Y-149465000D01*
G75*
G02*
X118450000Y-149215000I0J250000D01*
G01*
G37*
%TD.AperFunction*%
%TD*%
%TO.P,Rf2,2*%
%TO.N,Net-(JP1-Pad1)*%
%TA.AperFunction,SMDPad,CuDef*%
G36*
G01*
X138582500Y-147965000D02*
X138582500Y-149215000D01*
G75*
G02*
X138332500Y-149465000I-250000J0D01*
G01*
X137532500Y-149465000D01*
G75*
G02*
X137282500Y-149215000I0J250000D01*
G01*
X137282500Y-147965000D01*
G75*
G02*
X137532500Y-147715000I250000J0D01*
G01*
X138332500Y-147715000D01*
G75*
G02*
X138582500Y-147965000I0J-250000D01*
G01*
G37*
%TD.AperFunction*%
%TO.P,Rf2,1*%
%TO.N,Net-(Df8-Pad2)*%
%TA.AperFunction,SMDPad,CuDef*%
G36*
G01*
X141682500Y-147965000D02*
X141682500Y-149215000D01*
G75*
G02*
X141432500Y-149465000I-250000J0D01*
G01*
X140632500Y-149465000D01*
G75*
G02*
X140382500Y-149215000I0J250000D01*
G01*
X140382500Y-147965000D01*
G75*
G02*
X140632500Y-147715000I250000J0D01*
G01*
X141432500Y-147715000D01*
G75*
G02*
X141682500Y-147965000I0J-250000D01*
G01*
G37*
%TD.AperFunction*%
%TD*%
%TO.P,Rf1,2*%
%TO.N,Net-(JP1-Pad1)*%
%TA.AperFunction,SMDPad,CuDef*%
G36*
G01*
X141595000Y-119967500D02*
X140345000Y-119967500D01*
G75*
G02*
X140095000Y-119717500I0J250000D01*
G01*
X140095000Y-118917500D01*
G75*
G02*
X140345000Y-118667500I250000J0D01*
G01*
X141595000Y-118667500D01*
G75*
G02*
X141845000Y-118917500I0J-250000D01*
G01*
X141845000Y-119717500D01*
G75*
G02*
X141595000Y-119967500I-250000J0D01*
G01*
G37*
%TD.AperFunction*%
%TO.P,Rf1,1*%
%TO.N,Net-(Df4-Pad2)*%
%TA.AperFunction,SMDPad,CuDef*%
G36*
G01*
X141595000Y-123067500D02*
X140345000Y-123067500D01*
G75*
G02*
X140095000Y-122817500I0J250000D01*
G01*
X140095000Y-122017500D01*
G75*
G02*
X140345000Y-121767500I250000J0D01*
G01*
X141595000Y-121767500D01*
G75*
G02*
X141845000Y-122017500I0J-250000D01*
G01*
X141845000Y-122817500D01*
G75*
G02*
X141595000Y-123067500I-250000J0D01*
G01*
G37*
%TD.AperFunction*%
%TD*%
%TO.P,Re2,2*%
%TO.N,Net-(JP1-Pad1)*%
%TA.AperFunction,SMDPad,CuDef*%
G36*
G01*
X98472500Y-104765000D02*
X98472500Y-103515000D01*
G75*
G02*
X98722500Y-103265000I250000J0D01*
G01*
X99522500Y-103265000D01*
G75*
G02*
X99772500Y-103515000I0J-250000D01*
G01*
X99772500Y-104765000D01*
G75*
G02*
X99522500Y-105015000I-250000J0D01*
G01*
X98722500Y-105015000D01*
G75*
G02*
X98472500Y-104765000I0J250000D01*
G01*
G37*
%TD.AperFunction*%
%TO.P,Re2,1*%
%TO.N,Net-(De8-Pad2)*%
%TA.AperFunction,SMDPad,CuDef*%
G36*
G01*
X95372500Y-104765000D02*
X95372500Y-103515000D01*
G75*
G02*
X95622500Y-103265000I250000J0D01*
G01*
X96422500Y-103265000D01*
G75*
G02*
X96672500Y-103515000I0J-250000D01*
G01*
X96672500Y-104765000D01*
G75*
G02*
X96422500Y-105015000I-250000J0D01*
G01*
X95622500Y-105015000D01*
G75*
G02*
X95372500Y-104765000I0J250000D01*
G01*
G37*
%TD.AperFunction*%
%TD*%
%TO.P,Re1,2*%
%TO.N,Net-(JP1-Pad1)*%
%TA.AperFunction,SMDPad,CuDef*%
G36*
G01*
X94625000Y-128952500D02*
X95875000Y-128952500D01*
G75*
G02*
X96125000Y-129202500I0J-250000D01*
G01*
X96125000Y-130002500D01*
G75*
G02*
X95875000Y-130252500I-250000J0D01*
G01*
X94625000Y-130252500D01*
G75*
G02*
X94375000Y-130002500I0J250000D01*
G01*
X94375000Y-129202500D01*
G75*
G02*
X94625000Y-128952500I250000J0D01*
G01*
G37*
%TD.AperFunction*%
%TO.P,Re1,1*%
%TO.N,Net-(De4-Pad2)*%
%TA.AperFunction,SMDPad,CuDef*%
G36*
G01*
X94625000Y-125852500D02*
X95875000Y-125852500D01*
G75*
G02*
X96125000Y-126102500I0J-250000D01*
G01*
X96125000Y-126902500D01*
G75*
G02*
X95875000Y-127152500I-250000J0D01*
G01*
X94625000Y-127152500D01*
G75*
G02*
X94375000Y-126902500I0J250000D01*
G01*
X94375000Y-126102500D01*
G75*
G02*
X94625000Y-125852500I250000J0D01*
G01*
G37*
%TD.AperFunction*%
%TD*%
%TO.P,Rd2,2*%
%TO.N,Net-(JP1-Pad1)*%
%TA.AperFunction,SMDPad,CuDef*%
G36*
G01*
X140345000Y-101647500D02*
X141595000Y-101647500D01*
G75*
G02*
X141845000Y-101897500I0J-250000D01*
G01*
X141845000Y-102697500D01*
G75*
G02*
X141595000Y-102947500I-250000J0D01*
G01*
X140345000Y-102947500D01*
G75*
G02*
X140095000Y-102697500I0J250000D01*
G01*
X140095000Y-101897500D01*
G75*
G02*
X140345000Y-101647500I250000J0D01*
G01*
G37*
%TD.AperFunction*%
%TO.P,Rd2,1*%
%TO.N,Net-(Dd8-Pad2)*%
%TA.AperFunction,SMDPad,CuDef*%
G36*
G01*
X140345000Y-98547500D02*
X141595000Y-98547500D01*
G75*
G02*
X141845000Y-98797500I0J-250000D01*
G01*
X141845000Y-99597500D01*
G75*
G02*
X141595000Y-99847500I-250000J0D01*
G01*
X140345000Y-99847500D01*
G75*
G02*
X140095000Y-99597500I0J250000D01*
G01*
X140095000Y-98797500D01*
G75*
G02*
X140345000Y-98547500I250000J0D01*
G01*
G37*
%TD.AperFunction*%
%TD*%
%TO.P,Rd1,2*%
%TO.N,Net-(JP1-Pad1)*%
%TA.AperFunction,SMDPad,CuDef*%
G36*
G01*
X118157500Y-85715000D02*
X118157500Y-84465000D01*
G75*
G02*
X118407500Y-84215000I250000J0D01*
G01*
X119207500Y-84215000D01*
G75*
G02*
X119457500Y-84465000I0J-250000D01*
G01*
X119457500Y-85715000D01*
G75*
G02*
X119207500Y-85965000I-250000J0D01*
G01*
X118407500Y-85965000D01*
G75*
G02*
X118157500Y-85715000I0J250000D01*
G01*
G37*
%TD.AperFunction*%
%TO.P,Rd1,1*%
%TO.N,Net-(Dd4-Pad2)*%
%TA.AperFunction,SMDPad,CuDef*%
G36*
G01*
X115057500Y-85715000D02*
X115057500Y-84465000D01*
G75*
G02*
X115307500Y-84215000I250000J0D01*
G01*
X116107500Y-84215000D01*
G75*
G02*
X116357500Y-84465000I0J-250000D01*
G01*
X116357500Y-85715000D01*
G75*
G02*
X116107500Y-85965000I-250000J0D01*
G01*
X115307500Y-85965000D01*
G75*
G02*
X115057500Y-85715000I0J250000D01*
G01*
G37*
%TD.AperFunction*%
%TD*%
%TO.P,Rc2,2*%
%TO.N,Net-(JP1-Pad1)*%
%TA.AperFunction,SMDPad,CuDef*%
G36*
G01*
X137747500Y-84465000D02*
X137747500Y-85715000D01*
G75*
G02*
X137497500Y-85965000I-250000J0D01*
G01*
X136697500Y-85965000D01*
G75*
G02*
X136447500Y-85715000I0J250000D01*
G01*
X136447500Y-84465000D01*
G75*
G02*
X136697500Y-84215000I250000J0D01*
G01*
X137497500Y-84215000D01*
G75*
G02*
X137747500Y-84465000I0J-250000D01*
G01*
G37*
%TD.AperFunction*%
%TO.P,Rc2,1*%
%TO.N,Net-(Dc8-Pad2)*%
%TA.AperFunction,SMDPad,CuDef*%
G36*
G01*
X140847500Y-84465000D02*
X140847500Y-85715000D01*
G75*
G02*
X140597500Y-85965000I-250000J0D01*
G01*
X139797500Y-85965000D01*
G75*
G02*
X139547500Y-85715000I0J250000D01*
G01*
X139547500Y-84465000D01*
G75*
G02*
X139797500Y-84215000I250000J0D01*
G01*
X140597500Y-84215000D01*
G75*
G02*
X140847500Y-84465000I0J-250000D01*
G01*
G37*
%TD.AperFunction*%
%TD*%
%TO.P,Rc1,2*%
%TO.N,Net-(JP1-Pad1)*%
%TA.AperFunction,SMDPad,CuDef*%
G36*
G01*
X140325000Y-57302500D02*
X139075000Y-57302500D01*
G75*
G02*
X138825000Y-57052500I0J250000D01*
G01*
X138825000Y-56252500D01*
G75*
G02*
X139075000Y-56002500I250000J0D01*
G01*
X140325000Y-56002500D01*
G75*
G02*
X140575000Y-56252500I0J-250000D01*
G01*
X140575000Y-57052500D01*
G75*
G02*
X140325000Y-57302500I-250000J0D01*
G01*
G37*
%TD.AperFunction*%
%TO.P,Rc1,1*%
%TO.N,Net-(Dc4-Pad2)*%
%TA.AperFunction,SMDPad,CuDef*%
G36*
G01*
X140325000Y-60402500D02*
X139075000Y-60402500D01*
G75*
G02*
X138825000Y-60152500I0J250000D01*
G01*
X138825000Y-59352500D01*
G75*
G02*
X139075000Y-59102500I250000J0D01*
G01*
X140325000Y-59102500D01*
G75*
G02*
X140575000Y-59352500I0J-250000D01*
G01*
X140575000Y-60152500D01*
G75*
G02*
X140325000Y-60402500I-250000J0D01*
G01*
G37*
%TD.AperFunction*%
%TD*%
%TO.P,Rb2,2*%
%TO.N,Net-(JP1-Pad1)*%
%TA.AperFunction,SMDPad,CuDef*%
G36*
G01*
X97202500Y-38217000D02*
X97202500Y-36967000D01*
G75*
G02*
X97452500Y-36717000I250000J0D01*
G01*
X98252500Y-36717000D01*
G75*
G02*
X98502500Y-36967000I0J-250000D01*
G01*
X98502500Y-38217000D01*
G75*
G02*
X98252500Y-38467000I-250000J0D01*
G01*
X97452500Y-38467000D01*
G75*
G02*
X97202500Y-38217000I0J250000D01*
G01*
G37*
%TD.AperFunction*%
%TO.P,Rb2,1*%
%TO.N,Net-(Db8-Pad2)*%
%TA.AperFunction,SMDPad,CuDef*%
G36*
G01*
X94102500Y-38217000D02*
X94102500Y-36967000D01*
G75*
G02*
X94352500Y-36717000I250000J0D01*
G01*
X95152500Y-36717000D01*
G75*
G02*
X95402500Y-36967000I0J-250000D01*
G01*
X95402500Y-38217000D01*
G75*
G02*
X95152500Y-38467000I-250000J0D01*
G01*
X94352500Y-38467000D01*
G75*
G02*
X94102500Y-38217000I0J250000D01*
G01*
G37*
%TD.AperFunction*%
%TD*%
%TO.P,Rb1,2*%
%TO.N,Net-(JP1-Pad1)*%
%TA.AperFunction,SMDPad,CuDef*%
G36*
G01*
X97202500Y-64125000D02*
X97202500Y-62875000D01*
G75*
G02*
X97452500Y-62625000I250000J0D01*
G01*
X98252500Y-62625000D01*
G75*
G02*
X98502500Y-62875000I0J-250000D01*
G01*
X98502500Y-64125000D01*
G75*
G02*
X98252500Y-64375000I-250000J0D01*
G01*
X97452500Y-64375000D01*
G75*
G02*
X97202500Y-64125000I0J250000D01*
G01*
G37*
%TD.AperFunction*%
%TO.P,Rb1,1*%
%TO.N,Net-(Db4-Pad2)*%
%TA.AperFunction,SMDPad,CuDef*%
G36*
G01*
X94102500Y-64125000D02*
X94102500Y-62875000D01*
G75*
G02*
X94352500Y-62625000I250000J0D01*
G01*
X95152500Y-62625000D01*
G75*
G02*
X95402500Y-62875000I0J-250000D01*
G01*
X95402500Y-64125000D01*
G75*
G02*
X95152500Y-64375000I-250000J0D01*
G01*
X94352500Y-64375000D01*
G75*
G02*
X94102500Y-64125000I0J250000D01*
G01*
G37*
%TD.AperFunction*%
%TD*%
%TO.P,Ra2,2*%
%TO.N,Net-(JP1-Pad1)*%
%TA.AperFunction,SMDPad,CuDef*%
G36*
G01*
X139075000Y-40487500D02*
X140325000Y-40487500D01*
G75*
G02*
X140575000Y-40737500I0J-250000D01*
G01*
X140575000Y-41537500D01*
G75*
G02*
X140325000Y-41787500I-250000J0D01*
G01*
X139075000Y-41787500D01*
G75*
G02*
X138825000Y-41537500I0J250000D01*
G01*
X138825000Y-40737500D01*
G75*
G02*
X139075000Y-40487500I250000J0D01*
G01*
G37*
%TD.AperFunction*%
%TO.P,Ra2,1*%
%TO.N,Net-(Da8-Pad2)*%
%TA.AperFunction,SMDPad,CuDef*%
G36*
G01*
X139075000Y-37387500D02*
X140325000Y-37387500D01*
G75*
G02*
X140575000Y-37637500I0J-250000D01*
G01*
X140575000Y-38437500D01*
G75*
G02*
X140325000Y-38687500I-250000J0D01*
G01*
X139075000Y-38687500D01*
G75*
G02*
X138825000Y-38437500I0J250000D01*
G01*
X138825000Y-37637500D01*
G75*
G02*
X139075000Y-37387500I250000J0D01*
G01*
G37*
%TD.AperFunction*%
%TD*%
%TO.P,Ra1,2*%
%TO.N,Net-(JP1-Pad1)*%
%TA.AperFunction,SMDPad,CuDef*%
G36*
G01*
X113617500Y-36967000D02*
X113617500Y-38217000D01*
G75*
G02*
X113367500Y-38467000I-250000J0D01*
G01*
X112567500Y-38467000D01*
G75*
G02*
X112317500Y-38217000I0J250000D01*
G01*
X112317500Y-36967000D01*
G75*
G02*
X112567500Y-36717000I250000J0D01*
G01*
X113367500Y-36717000D01*
G75*
G02*
X113617500Y-36967000I0J-250000D01*
G01*
G37*
%TD.AperFunction*%
%TO.P,Ra1,1*%
%TO.N,Net-(Da4-Pad2)*%
%TA.AperFunction,SMDPad,CuDef*%
G36*
G01*
X116717500Y-36967000D02*
X116717500Y-38217000D01*
G75*
G02*
X116467500Y-38467000I-250000J0D01*
G01*
X115667500Y-38467000D01*
G75*
G02*
X115417500Y-38217000I0J250000D01*
G01*
X115417500Y-36967000D01*
G75*
G02*
X115667500Y-36717000I250000J0D01*
G01*
X116467500Y-36717000D01*
G75*
G02*
X116717500Y-36967000I0J-250000D01*
G01*
G37*
%TD.AperFunction*%
%TD*%
D10*
%TO.P,De1,2*%
%TO.N,Net-(De1-Pad2)*%
X89500000Y-145960000D03*
D11*
%TO.P,De1,1*%
%TO.N,Net-(De1-Pad1)*%
X89500000Y-148500000D03*
%TD*%
D10*
%TO.P,Dg2,2*%
%TO.N,Net-(Dg2-Pad2)*%
X132460000Y-153500000D03*
D11*
%TO.P,Dg2,1*%
%TO.N,Net-(Dg1-Pad2)*%
X135000000Y-153500000D03*
%TD*%
D10*
%TO.P,De6,2*%
%TO.N,Net-(De6-Pad2)*%
X89500000Y-113460000D03*
D11*
%TO.P,De6,1*%
%TO.N,Net-(De5-Pad2)*%
X89500000Y-116000000D03*
%TD*%
D10*
%TO.P,Da5,2*%
%TO.N,Net-(Da5-Pad2)*%
X122040000Y-32500000D03*
D11*
%TO.P,Da5,1*%
%TO.N,Net-(Da1-Pad1)*%
X119500000Y-32500000D03*
%TD*%
%TO.P,Da1,1*%
%TO.N,Net-(Da1-Pad1)*%
X93500000Y-32500000D03*
D10*
%TO.P,Da1,2*%
%TO.N,Net-(Da1-Pad2)*%
X96040000Y-32500000D03*
%TD*%
D11*
%TO.P,Da2,1*%
%TO.N,Net-(Da1-Pad2)*%
X100000000Y-32500000D03*
D10*
%TO.P,Da2,2*%
%TO.N,Net-(Da2-Pad2)*%
X102540000Y-32500000D03*
%TD*%
%TO.P,Da3,2*%
%TO.N,Net-(Da3-Pad2)*%
X109040000Y-32500000D03*
D11*
%TO.P,Da3,1*%
%TO.N,Net-(Da2-Pad2)*%
X106500000Y-32500000D03*
%TD*%
%TO.P,Da4,1*%
%TO.N,Net-(Da3-Pad2)*%
X113000000Y-32500000D03*
D10*
%TO.P,Da4,2*%
%TO.N,Net-(Da4-Pad2)*%
X115540000Y-32500000D03*
%TD*%
D11*
%TO.P,Da6,1*%
%TO.N,Net-(Da5-Pad2)*%
X126000000Y-32500000D03*
D10*
%TO.P,Da6,2*%
%TO.N,Net-(Da6-Pad2)*%
X128540000Y-32500000D03*
%TD*%
%TO.P,Da7,2*%
%TO.N,Net-(Da7-Pad2)*%
X135040000Y-32500000D03*
D11*
%TO.P,Da7,1*%
%TO.N,Net-(Da6-Pad2)*%
X132500000Y-32500000D03*
%TD*%
%TO.P,Da8,1*%
%TO.N,Net-(Da7-Pad2)*%
X139000000Y-32500000D03*
D10*
%TO.P,Da8,2*%
%TO.N,Net-(Da8-Pad2)*%
X141540000Y-32500000D03*
%TD*%
%TO.P,Db1,2*%
%TO.N,Net-(Db1-Pad2)*%
X89500000Y-82960000D03*
D11*
%TO.P,Db1,1*%
%TO.N,Net-(Db1-Pad1)*%
X89500000Y-85500000D03*
%TD*%
%TO.P,Db2,1*%
%TO.N,Net-(Db1-Pad2)*%
X89500000Y-79000000D03*
D10*
%TO.P,Db2,2*%
%TO.N,Net-(Db2-Pad2)*%
X89500000Y-76460000D03*
%TD*%
%TO.P,Db3,2*%
%TO.N,Net-(Db3-Pad2)*%
X89500000Y-69960000D03*
D11*
%TO.P,Db3,1*%
%TO.N,Net-(Db2-Pad2)*%
X89500000Y-72500000D03*
%TD*%
%TO.P,Db4,1*%
%TO.N,Net-(Db3-Pad2)*%
X89500000Y-66000000D03*
D10*
%TO.P,Db4,2*%
%TO.N,Net-(Db4-Pad2)*%
X89500000Y-63460000D03*
%TD*%
%TO.P,Db5,2*%
%TO.N,Net-(Db5-Pad2)*%
X89500000Y-56960000D03*
D11*
%TO.P,Db5,1*%
%TO.N,Net-(Db1-Pad1)*%
X89500000Y-59500000D03*
%TD*%
%TO.P,Db6,1*%
%TO.N,Net-(Db5-Pad2)*%
X89500000Y-53000000D03*
D10*
%TO.P,Db6,2*%
%TO.N,Net-(Db6-Pad2)*%
X89500000Y-50460000D03*
%TD*%
%TO.P,Db7,2*%
%TO.N,Net-(Db7-Pad2)*%
X89500000Y-43960000D03*
D11*
%TO.P,Db7,1*%
%TO.N,Net-(Db6-Pad2)*%
X89500000Y-46500000D03*
%TD*%
%TO.P,Db8,1*%
%TO.N,Net-(Db7-Pad2)*%
X89500000Y-40000000D03*
D10*
%TO.P,Db8,2*%
%TO.N,Net-(Db8-Pad2)*%
X89500000Y-37460000D03*
%TD*%
D11*
%TO.P,Dc1,1*%
%TO.N,Net-(Dc1-Pad1)*%
X145500000Y-37500000D03*
D10*
%TO.P,Dc1,2*%
%TO.N,Net-(Dc1-Pad2)*%
X145500000Y-40040000D03*
%TD*%
%TO.P,Dc2,2*%
%TO.N,Net-(Dc2-Pad2)*%
X145500000Y-46540000D03*
D11*
%TO.P,Dc2,1*%
%TO.N,Net-(Dc1-Pad2)*%
X145500000Y-44000000D03*
%TD*%
D10*
%TO.P,Dc3,2*%
%TO.N,Net-(Dc3-Pad2)*%
X145500000Y-53040000D03*
D11*
%TO.P,Dc3,1*%
%TO.N,Net-(Dc2-Pad2)*%
X145500000Y-50500000D03*
%TD*%
%TO.P,Dc4,1*%
%TO.N,Net-(Dc3-Pad2)*%
X145500000Y-57000000D03*
D10*
%TO.P,Dc4,2*%
%TO.N,Net-(Dc4-Pad2)*%
X145500000Y-59540000D03*
%TD*%
%TO.P,Dc5,2*%
%TO.N,Net-(Dc5-Pad2)*%
X145500000Y-66040000D03*
D11*
%TO.P,Dc5,1*%
%TO.N,Net-(Dc1-Pad1)*%
X145500000Y-63500000D03*
%TD*%
%TO.P,Dc6,1*%
%TO.N,Net-(Dc5-Pad2)*%
X145500000Y-70000000D03*
D10*
%TO.P,Dc6,2*%
%TO.N,Net-(Dc6-Pad2)*%
X145500000Y-72540000D03*
%TD*%
%TO.P,Dc7,2*%
%TO.N,Net-(Dc7-Pad2)*%
X145500000Y-79040000D03*
D11*
%TO.P,Dc7,1*%
%TO.N,Net-(Dc6-Pad2)*%
X145500000Y-76500000D03*
%TD*%
D10*
%TO.P,Dc8,2*%
%TO.N,Net-(Dc8-Pad2)*%
X145500000Y-85540000D03*
D11*
%TO.P,Dc8,1*%
%TO.N,Net-(Dc7-Pad2)*%
X145500000Y-83000000D03*
%TD*%
%TO.P,Dd1,1*%
%TO.N,Net-(Dd1-Pad1)*%
X93500000Y-93000000D03*
D10*
%TO.P,Dd1,2*%
%TO.N,Net-(Dd1-Pad2)*%
X96040000Y-93000000D03*
%TD*%
%TO.P,Dd2,2*%
%TO.N,Net-(Dd2-Pad2)*%
X102540000Y-93000000D03*
D11*
%TO.P,Dd2,1*%
%TO.N,Net-(Dd1-Pad2)*%
X100000000Y-93000000D03*
%TD*%
%TO.P,Dd3,1*%
%TO.N,Net-(Dd2-Pad2)*%
X106500000Y-93000000D03*
D10*
%TO.P,Dd3,2*%
%TO.N,Net-(Dd3-Pad2)*%
X109040000Y-93000000D03*
%TD*%
%TO.P,Dd4,2*%
%TO.N,Net-(Dd4-Pad2)*%
X115540000Y-93000000D03*
D11*
%TO.P,Dd4,1*%
%TO.N,Net-(Dd3-Pad2)*%
X113000000Y-93000000D03*
%TD*%
%TO.P,Dd5,1*%
%TO.N,Net-(Dd1-Pad1)*%
X119500000Y-93000000D03*
D10*
%TO.P,Dd5,2*%
%TO.N,Net-(Dd5-Pad2)*%
X122040000Y-93000000D03*
%TD*%
%TO.P,Dd6,2*%
%TO.N,Net-(Dd6-Pad2)*%
X128540000Y-93000000D03*
D11*
%TO.P,Dd6,1*%
%TO.N,Net-(Dd5-Pad2)*%
X126000000Y-93000000D03*
%TD*%
%TO.P,Dd7,1*%
%TO.N,Net-(Dd6-Pad2)*%
X132500000Y-93000000D03*
D10*
%TO.P,Dd7,2*%
%TO.N,Net-(Dd7-Pad2)*%
X135040000Y-93000000D03*
%TD*%
%TO.P,Dd8,2*%
%TO.N,Net-(Dd8-Pad2)*%
X141540000Y-93000000D03*
D11*
%TO.P,Dd8,1*%
%TO.N,Net-(Dd7-Pad2)*%
X139000000Y-93000000D03*
%TD*%
D10*
%TO.P,De2,2*%
%TO.N,Net-(De2-Pad2)*%
X89500000Y-139460000D03*
D11*
%TO.P,De2,1*%
%TO.N,Net-(De1-Pad2)*%
X89500000Y-142000000D03*
%TD*%
%TO.P,De3,1*%
%TO.N,Net-(De2-Pad2)*%
X89500000Y-135500000D03*
D10*
%TO.P,De3,2*%
%TO.N,Net-(De3-Pad2)*%
X89500000Y-132960000D03*
%TD*%
%TO.P,De4,2*%
%TO.N,Net-(De4-Pad2)*%
X89500000Y-126460000D03*
D11*
%TO.P,De4,1*%
%TO.N,Net-(De3-Pad2)*%
X89500000Y-129000000D03*
%TD*%
%TO.P,De5,1*%
%TO.N,Net-(De1-Pad1)*%
X89500000Y-122500000D03*
D10*
%TO.P,De5,2*%
%TO.N,Net-(De5-Pad2)*%
X89500000Y-119960000D03*
%TD*%
D11*
%TO.P,De7,1*%
%TO.N,Net-(De6-Pad2)*%
X89500000Y-109500000D03*
D10*
%TO.P,De7,2*%
%TO.N,Net-(De7-Pad2)*%
X89500000Y-106960000D03*
%TD*%
%TO.P,De8,2*%
%TO.N,Net-(De8-Pad2)*%
X89500000Y-100460000D03*
D11*
%TO.P,De8,1*%
%TO.N,Net-(De7-Pad2)*%
X89500000Y-103000000D03*
%TD*%
%TO.P,Df1,1*%
%TO.N,Net-(Df1-Pad1)*%
X145500000Y-100500000D03*
D10*
%TO.P,Df1,2*%
%TO.N,Net-(Df1-Pad2)*%
X145500000Y-103040000D03*
%TD*%
%TO.P,Df2,2*%
%TO.N,Net-(Df2-Pad2)*%
X145500000Y-109540000D03*
D11*
%TO.P,Df2,1*%
%TO.N,Net-(Df1-Pad2)*%
X145500000Y-107000000D03*
%TD*%
%TO.P,Df3,1*%
%TO.N,Net-(Df2-Pad2)*%
X145500000Y-113500000D03*
D10*
%TO.P,Df3,2*%
%TO.N,Net-(Df3-Pad2)*%
X145500000Y-116040000D03*
%TD*%
%TO.P,Df4,2*%
%TO.N,Net-(Df4-Pad2)*%
X145500000Y-122540000D03*
D11*
%TO.P,Df4,1*%
%TO.N,Net-(Df3-Pad2)*%
X145500000Y-120000000D03*
%TD*%
%TO.P,Df5,1*%
%TO.N,Net-(Df1-Pad1)*%
X145500000Y-126500000D03*
D10*
%TO.P,Df5,2*%
%TO.N,Net-(Df5-Pad2)*%
X145500000Y-129040000D03*
%TD*%
%TO.P,Df6,2*%
%TO.N,Net-(Df6-Pad2)*%
X145500000Y-135540000D03*
D11*
%TO.P,Df6,1*%
%TO.N,Net-(Df5-Pad2)*%
X145500000Y-133000000D03*
%TD*%
%TO.P,Df7,1*%
%TO.N,Net-(Df6-Pad2)*%
X145500000Y-139500000D03*
D10*
%TO.P,Df7,2*%
%TO.N,Net-(Df7-Pad2)*%
X145500000Y-142040000D03*
%TD*%
%TO.P,Df8,2*%
%TO.N,Net-(Df8-Pad2)*%
X145500000Y-148540000D03*
D11*
%TO.P,Df8,1*%
%TO.N,Net-(Df7-Pad2)*%
X145500000Y-146000000D03*
%TD*%
%TO.P,Dg1,1*%
%TO.N,Net-(Dg1-Pad1)*%
X141500000Y-153500000D03*
D10*
%TO.P,Dg1,2*%
%TO.N,Net-(Dg1-Pad2)*%
X138960000Y-153500000D03*
%TD*%
D11*
%TO.P,Dg3,1*%
%TO.N,Net-(Dg2-Pad2)*%
X128500000Y-153500000D03*
D10*
%TO.P,Dg3,2*%
%TO.N,Net-(Dg3-Pad2)*%
X125960000Y-153500000D03*
%TD*%
%TO.P,Dg4,2*%
%TO.N,Net-(Dg4-Pad2)*%
X119460000Y-153500000D03*
D11*
%TO.P,Dg4,1*%
%TO.N,Net-(Dg3-Pad2)*%
X122000000Y-153500000D03*
%TD*%
%TO.P,Dg5,1*%
%TO.N,Net-(Dg1-Pad1)*%
X115500000Y-153500000D03*
D10*
%TO.P,Dg5,2*%
%TO.N,Net-(Dg5-Pad2)*%
X112960000Y-153500000D03*
%TD*%
D11*
%TO.P,Dg6,1*%
%TO.N,Net-(Dg5-Pad2)*%
X109000000Y-153500000D03*
D10*
%TO.P,Dg6,2*%
%TO.N,Net-(Dg6-Pad2)*%
X106460000Y-153500000D03*
%TD*%
D11*
%TO.P,Dg7,1*%
%TO.N,Net-(Dg6-Pad2)*%
X102500000Y-153500000D03*
D10*
%TO.P,Dg7,2*%
%TO.N,Net-(Dg7-Pad2)*%
X99960000Y-153500000D03*
%TD*%
%TO.P,Dg8,2*%
%TO.N,Net-(Dg8-Pad2)*%
X93460000Y-153500000D03*
D11*
%TO.P,Dg8,1*%
%TO.N,Net-(Dg7-Pad2)*%
X96000000Y-153500000D03*
%TD*%
D12*
%TO.P,J1,8*%
%TO.N,Net-(J1-Pad8)*%
X152500000Y-76780000D03*
%TO.P,J1,7*%
%TO.N,Net-(Dg1-Pad1)*%
X152500000Y-74240000D03*
%TO.P,J1,6*%
%TO.N,Net-(Df1-Pad1)*%
X152500000Y-71700000D03*
%TO.P,J1,5*%
%TO.N,Net-(De1-Pad1)*%
X152500000Y-69160000D03*
%TO.P,J1,4*%
%TO.N,Net-(Dd1-Pad1)*%
X152500000Y-66620000D03*
%TO.P,J1,3*%
%TO.N,Net-(Dc1-Pad1)*%
X152500000Y-64080000D03*
%TO.P,J1,2*%
%TO.N,Net-(Db1-Pad1)*%
X152500000Y-61540000D03*
D13*
%TO.P,J1,1*%
%TO.N,Net-(Da1-Pad1)*%
X152500000Y-59000000D03*
%TD*%
%TO.P,J2,1*%
%TO.N,Net-(Da1-Pad1)*%
X82500000Y-59000000D03*
D12*
%TO.P,J2,2*%
%TO.N,Net-(Db1-Pad1)*%
X82500000Y-61540000D03*
%TO.P,J2,3*%
%TO.N,Net-(Dc1-Pad1)*%
X82500000Y-64080000D03*
%TO.P,J2,4*%
%TO.N,Net-(Dd1-Pad1)*%
X82500000Y-66620000D03*
%TO.P,J2,5*%
%TO.N,Net-(De1-Pad1)*%
X82500000Y-69160000D03*
%TO.P,J2,6*%
%TO.N,Net-(Df1-Pad1)*%
X82500000Y-71700000D03*
%TO.P,J2,7*%
%TO.N,Net-(Dg1-Pad1)*%
X82500000Y-74240000D03*
%TO.P,J2,8*%
%TO.N,Net-(J1-Pad8)*%
X82500000Y-76780000D03*
%TD*%
D13*
%TO.P,J3,1*%
%TO.N,Net-(J3-Pad1)*%
X152500000Y-85500000D03*
D12*
%TO.P,J3,2*%
%TO.N,Net-(J3-Pad2)*%
X152500000Y-88040000D03*
%TO.P,J3,3*%
%TO.N,Net-(J3-Pad3)*%
X152500000Y-90580000D03*
%TO.P,J3,4*%
%TO.N,Net-(J3-Pad4)*%
X152500000Y-93120000D03*
%TO.P,J3,5*%
%TO.N,Net-(J3-Pad5)*%
X152500000Y-95660000D03*
%TO.P,J3,6*%
%TO.N,Net-(J3-Pad6)*%
X152500000Y-98200000D03*
%TO.P,J3,7*%
%TO.N,Net-(J3-Pad7)*%
X152500000Y-100740000D03*
%TO.P,J3,8*%
%TO.N,Net-(J3-Pad8)*%
X152500000Y-103280000D03*
%TD*%
%TO.P,J4,8*%
%TO.N,Net-(J3-Pad8)*%
X82500000Y-103280000D03*
%TO.P,J4,7*%
%TO.N,Net-(J3-Pad7)*%
X82500000Y-100740000D03*
%TO.P,J4,6*%
%TO.N,Net-(J3-Pad6)*%
X82500000Y-98200000D03*
%TO.P,J4,5*%
%TO.N,Net-(J3-Pad5)*%
X82500000Y-95660000D03*
%TO.P,J4,4*%
%TO.N,Net-(J3-Pad4)*%
X82500000Y-93120000D03*
%TO.P,J4,3*%
%TO.N,Net-(J3-Pad3)*%
X82500000Y-90580000D03*
%TO.P,J4,2*%
%TO.N,Net-(J3-Pad2)*%
X82500000Y-88040000D03*
D13*
%TO.P,J4,1*%
%TO.N,Net-(J3-Pad1)*%
X82500000Y-85500000D03*
%TD*%
D14*
%TO.P,JP1,1*%
%TO.N,Net-(JP1-Pad1)*%
X105000000Y-101650000D03*
%TO.P,JP1,2*%
%TO.N,Net-(J3-Pad1)*%
X105000000Y-100350000D03*
%TD*%
%TO.P,JP2,2*%
%TO.N,Net-(J3-Pad2)*%
X109000000Y-100350000D03*
%TO.P,JP2,1*%
%TO.N,Net-(JP1-Pad1)*%
X109000000Y-101650000D03*
%TD*%
%TO.P,JP3,1*%
%TO.N,Net-(JP1-Pad1)*%
X113000000Y-101650000D03*
%TO.P,JP3,2*%
%TO.N,Net-(J3-Pad3)*%
X113000000Y-100350000D03*
%TD*%
%TO.P,JP4,2*%
%TO.N,Net-(J3-Pad4)*%
X117000000Y-100350000D03*
%TO.P,JP4,1*%
%TO.N,Net-(JP1-Pad1)*%
X117000000Y-101650000D03*
%TD*%
%TO.P,JP5,2*%
%TO.N,Net-(J3-Pad5)*%
X121000000Y-100350000D03*
%TO.P,JP5,1*%
%TO.N,Net-(JP1-Pad1)*%
X121000000Y-101650000D03*
%TD*%
D15*
%TO.N,*%
X150000000Y-155000000D03*
X85000000Y-155000000D03*
X85000000Y-30000000D03*
X150000000Y-30000000D03*
D16*
%TO.N,Net-(J3-Pad1)*%
X104775000Y-94559989D03*
%TO.N,Net-(J3-Pad2)*%
X109220000Y-95359989D03*
%TO.N,Net-(J3-Pad3)*%
X113037510Y-96159989D03*
%TO.N,Net-(J3-Pad4)*%
X116840000Y-96959989D03*
%TO.N,Net-(J3-Pad5)*%
X120819979Y-97759989D03*
%TO.N,Net-(JP1-Pad1)*%
X138430000Y-60960000D03*
X138430000Y-83185000D03*
%TO.N,Net-(Db1-Pad1)*%
X143510000Y-60960000D03*
%TO.N,Net-(Dd1-Pad1)*%
X93504999Y-67469999D03*
%TO.N,Net-(Df1-Pad1)*%
X148590000Y-87630000D03*
X148770001Y-73840001D03*
%TD*%
D17*
%TO.N,Net-(J1-Pad8)*%
X148939999Y-80340001D02*
X152500000Y-76780000D01*
X86060001Y-80340001D02*
X148939999Y-80340001D01*
X82500000Y-76780000D02*
X86060001Y-80340001D01*
%TO.N,Net-(J3-Pad1)*%
X105000000Y-94784989D02*
X104775000Y-94559989D01*
X105000000Y-100350000D02*
X105000000Y-94784989D01*
%TO.N,Net-(J3-Pad2)*%
X109000000Y-95579989D02*
X109220000Y-95359989D01*
X109000000Y-100350000D02*
X109000000Y-95579989D01*
%TO.N,Net-(J3-Pad3)*%
X113000000Y-96197499D02*
X113037510Y-96159989D01*
X113000000Y-100350000D02*
X113000000Y-96197499D01*
%TO.N,Net-(J3-Pad4)*%
X117000000Y-97119989D02*
X116840000Y-96959989D01*
X117000000Y-100350000D02*
X117000000Y-97119989D01*
%TO.N,Net-(J3-Pad5)*%
X121000000Y-97940010D02*
X120819979Y-97759989D01*
X121000000Y-100350000D02*
X121000000Y-97940010D01*
%TO.N,Net-(JP1-Pad1)*%
X137995000Y-148590000D02*
X122137500Y-148590000D01*
X95250000Y-129540000D02*
X95250000Y-145615000D01*
X119162500Y-145615000D02*
X122137500Y-148590000D01*
X95250000Y-145615000D02*
X119162500Y-145615000D01*
X137995000Y-122355000D02*
X137995000Y-148590000D01*
X140970000Y-119380000D02*
X137995000Y-122355000D01*
X116513000Y-41075000D02*
X139700000Y-41075000D01*
X113030000Y-37592000D02*
X116513000Y-41075000D01*
X139700000Y-41075000D02*
X139700000Y-56715000D01*
X97790000Y-63500000D02*
X97790000Y-37592000D01*
X97790000Y-37592000D02*
X113030000Y-37592000D01*
X138424990Y-60954990D02*
X138430000Y-60960000D01*
X138424990Y-57990010D02*
X138424990Y-60954990D01*
X139700000Y-56715000D02*
X138424990Y-57990010D01*
X138430000Y-83820000D02*
X137160000Y-85090000D01*
X138430000Y-83185000D02*
X138430000Y-83820000D01*
X140970000Y-102235000D02*
X140970000Y-119380000D01*
X137160000Y-85090000D02*
X118745000Y-85090000D01*
X105000000Y-101650000D02*
X109000000Y-101650000D01*
X109000000Y-101650000D02*
X113000000Y-101650000D01*
X113000000Y-101650000D02*
X117000000Y-101650000D01*
X117000000Y-101650000D02*
X121000000Y-101650000D01*
X101550000Y-101650000D02*
X99060000Y-104140000D01*
X105000000Y-101650000D02*
X101550000Y-101650000D01*
X99060000Y-125730000D02*
X99060000Y-104140000D01*
X95250000Y-129540000D02*
X99060000Y-125730000D01*
X140385000Y-101650000D02*
X140970000Y-102235000D01*
X121000000Y-101650000D02*
X140385000Y-101650000D01*
X142840001Y-100364999D02*
X140970000Y-102235000D01*
X142840001Y-90770001D02*
X142840001Y-100364999D01*
X137160000Y-85090000D02*
X142840001Y-90770001D01*
%TO.N,Net-(Da4-Pad2)*%
X116005000Y-32965000D02*
X115540000Y-32500000D01*
X116005000Y-37592000D02*
X116005000Y-32965000D01*
%TO.N,Net-(Da8-Pad2)*%
X139700000Y-34340000D02*
X141540000Y-32500000D01*
X139700000Y-38100000D02*
X139700000Y-34340000D01*
%TO.N,Net-(Db1-Pad1)*%
X144090000Y-61540000D02*
X143510000Y-60960000D01*
X152500000Y-61540000D02*
X144090000Y-61540000D01*
%TO.N,Net-(Db4-Pad2)*%
X89540000Y-63500000D02*
X89500000Y-63460000D01*
X94815000Y-63500000D02*
X89540000Y-63500000D01*
%TO.N,Net-(Db8-Pad2)*%
X89632000Y-37592000D02*
X89500000Y-37460000D01*
X94815000Y-37592000D02*
X89632000Y-37592000D01*
%TO.N,Net-(Dc1-Pad1)*%
X96677490Y-64394246D02*
X97058254Y-64775010D01*
X96677490Y-62605754D02*
X96677490Y-64394246D01*
X97058254Y-64775010D02*
X144224990Y-64775010D01*
X96231735Y-62159999D02*
X96677490Y-62605754D01*
X144224990Y-64775010D02*
X145500000Y-63500000D01*
X84420001Y-62159999D02*
X96231735Y-62159999D01*
X82500000Y-64080000D02*
X84420001Y-62159999D01*
%TO.N,Net-(Dc4-Pad2)*%
X145350000Y-59690000D02*
X145500000Y-59540000D01*
X139700000Y-59690000D02*
X145350000Y-59690000D01*
%TO.N,Net-(Dc8-Pad2)*%
X145050000Y-85090000D02*
X145500000Y-85540000D01*
X140135000Y-85090000D02*
X145050000Y-85090000D01*
%TO.N,Net-(Dd1-Pad1)*%
X151650001Y-67469999D02*
X152500000Y-66620000D01*
X82500000Y-66620000D02*
X83349999Y-67469999D01*
X93504999Y-67469999D02*
X151650001Y-67469999D01*
X83349999Y-67469999D02*
X93504999Y-67469999D01*
%TO.N,Net-(Dd4-Pad2)*%
X115770000Y-92770000D02*
X115540000Y-93000000D01*
X115770000Y-85090000D02*
X115770000Y-92770000D01*
%TO.N,Net-(Dd8-Pad2)*%
X140970000Y-93570000D02*
X141540000Y-93000000D01*
X140970000Y-99260000D02*
X140970000Y-93570000D01*
%TO.N,Net-(De1-Pad1)*%
X83349999Y-68310001D02*
X82500000Y-69160000D01*
X151650001Y-68310001D02*
X83349999Y-68310001D01*
X152500000Y-69160000D02*
X151650001Y-68310001D01*
%TO.N,Net-(De4-Pad2)*%
X89605000Y-126565000D02*
X89500000Y-126460000D01*
X95250000Y-126565000D02*
X89605000Y-126565000D01*
%TO.N,Net-(De8-Pad2)*%
X93180000Y-104140000D02*
X89500000Y-100460000D01*
X96085000Y-104140000D02*
X93180000Y-104140000D01*
%TO.N,Net-(Df1-Pad1)*%
X150359999Y-73840001D02*
X152500000Y-71700000D01*
X82500000Y-71700000D02*
X84640001Y-73840001D01*
X149405001Y-73840001D02*
X150359999Y-73840001D01*
X145500000Y-90720000D02*
X148590000Y-87630000D01*
X145500000Y-100500000D02*
X145500000Y-90720000D01*
X148770001Y-73840001D02*
X149405001Y-73840001D01*
X84640001Y-73840001D02*
X148770001Y-73840001D01*
%TO.N,Net-(Df4-Pad2)*%
X145315000Y-122355000D02*
X145500000Y-122540000D01*
X140970000Y-122355000D02*
X145315000Y-122355000D01*
%TO.N,Net-(Df8-Pad2)*%
X145450000Y-148590000D02*
X145500000Y-148540000D01*
X140970000Y-148590000D02*
X145450000Y-148590000D01*
%TO.N,Net-(Dg1-Pad1)*%
X83349999Y-75089999D02*
X82500000Y-74240000D01*
X151650001Y-75089999D02*
X83349999Y-75089999D01*
X152500000Y-74240000D02*
X151650001Y-75089999D01*
%TO.N,Net-(Dg4-Pad2)*%
X119162500Y-153202500D02*
X119460000Y-153500000D01*
X119162500Y-148590000D02*
X119162500Y-153202500D01*
%TO.N,Net-(Dg8-Pad2)*%
X95250000Y-151710000D02*
X93460000Y-153500000D01*
X95250000Y-148590000D02*
X95250000Y-151710000D01*
%TD*%
M02*
