%TF.GenerationSoftware,KiCad,Pcbnew,5.1.7-a382d34a8~87~ubuntu20.04.1*%
%TF.CreationDate,2020-10-21T09:53:46+02:00*%
%TF.ProjectId,7segment_part,37736567-6d65-46e7-945f-706172742e6b,rev?*%
%TF.SameCoordinates,Original*%
%TF.FileFunction,Soldermask,Bot*%
%TF.FilePolarity,Negative*%
%FSLAX46Y46*%
G04 Gerber Fmt 4.6, Leading zero omitted, Abs format (unit mm)*
G04 Created by KiCad (PCBNEW 5.1.7-a382d34a8~87~ubuntu20.04.1) date 2020-10-21 09:53:46*
%MOMM*%
%LPD*%
G01*
G04 APERTURE LIST*
%ADD10C,1.900000*%
%ADD11O,1.800000X1.800000*%
G04 APERTURE END LIST*
D10*
%TO.C,De1*%
X89500000Y-145960000D03*
G36*
G01*
X90400000Y-149450000D02*
X88600000Y-149450000D01*
G75*
G02*
X88550000Y-149400000I0J50000D01*
G01*
X88550000Y-147600000D01*
G75*
G02*
X88600000Y-147550000I50000J0D01*
G01*
X90400000Y-147550000D01*
G75*
G02*
X90450000Y-147600000I0J-50000D01*
G01*
X90450000Y-149400000D01*
G75*
G02*
X90400000Y-149450000I-50000J0D01*
G01*
G37*
%TD*%
%TO.C,Dg2*%
X132460000Y-153500000D03*
G36*
G01*
X135950000Y-152600000D02*
X135950000Y-154400000D01*
G75*
G02*
X135900000Y-154450000I-50000J0D01*
G01*
X134100000Y-154450000D01*
G75*
G02*
X134050000Y-154400000I0J50000D01*
G01*
X134050000Y-152600000D01*
G75*
G02*
X134100000Y-152550000I50000J0D01*
G01*
X135900000Y-152550000D01*
G75*
G02*
X135950000Y-152600000I0J-50000D01*
G01*
G37*
%TD*%
%TO.C,De6*%
X89500000Y-113460000D03*
G36*
G01*
X90400000Y-116950000D02*
X88600000Y-116950000D01*
G75*
G02*
X88550000Y-116900000I0J50000D01*
G01*
X88550000Y-115100000D01*
G75*
G02*
X88600000Y-115050000I50000J0D01*
G01*
X90400000Y-115050000D01*
G75*
G02*
X90450000Y-115100000I0J-50000D01*
G01*
X90450000Y-116900000D01*
G75*
G02*
X90400000Y-116950000I-50000J0D01*
G01*
G37*
%TD*%
%TO.C,Da5*%
X122040000Y-32500000D03*
G36*
G01*
X118550000Y-33400000D02*
X118550000Y-31600000D01*
G75*
G02*
X118600000Y-31550000I50000J0D01*
G01*
X120400000Y-31550000D01*
G75*
G02*
X120450000Y-31600000I0J-50000D01*
G01*
X120450000Y-33400000D01*
G75*
G02*
X120400000Y-33450000I-50000J0D01*
G01*
X118600000Y-33450000D01*
G75*
G02*
X118550000Y-33400000I0J50000D01*
G01*
G37*
%TD*%
%TO.C,Da1*%
G36*
G01*
X92550000Y-33400000D02*
X92550000Y-31600000D01*
G75*
G02*
X92600000Y-31550000I50000J0D01*
G01*
X94400000Y-31550000D01*
G75*
G02*
X94450000Y-31600000I0J-50000D01*
G01*
X94450000Y-33400000D01*
G75*
G02*
X94400000Y-33450000I-50000J0D01*
G01*
X92600000Y-33450000D01*
G75*
G02*
X92550000Y-33400000I0J50000D01*
G01*
G37*
X96040000Y-32500000D03*
%TD*%
%TO.C,Da2*%
G36*
G01*
X99050000Y-33400000D02*
X99050000Y-31600000D01*
G75*
G02*
X99100000Y-31550000I50000J0D01*
G01*
X100900000Y-31550000D01*
G75*
G02*
X100950000Y-31600000I0J-50000D01*
G01*
X100950000Y-33400000D01*
G75*
G02*
X100900000Y-33450000I-50000J0D01*
G01*
X99100000Y-33450000D01*
G75*
G02*
X99050000Y-33400000I0J50000D01*
G01*
G37*
X102540000Y-32500000D03*
%TD*%
%TO.C,Da3*%
X109040000Y-32500000D03*
G36*
G01*
X105550000Y-33400000D02*
X105550000Y-31600000D01*
G75*
G02*
X105600000Y-31550000I50000J0D01*
G01*
X107400000Y-31550000D01*
G75*
G02*
X107450000Y-31600000I0J-50000D01*
G01*
X107450000Y-33400000D01*
G75*
G02*
X107400000Y-33450000I-50000J0D01*
G01*
X105600000Y-33450000D01*
G75*
G02*
X105550000Y-33400000I0J50000D01*
G01*
G37*
%TD*%
%TO.C,Da4*%
G36*
G01*
X112050000Y-33400000D02*
X112050000Y-31600000D01*
G75*
G02*
X112100000Y-31550000I50000J0D01*
G01*
X113900000Y-31550000D01*
G75*
G02*
X113950000Y-31600000I0J-50000D01*
G01*
X113950000Y-33400000D01*
G75*
G02*
X113900000Y-33450000I-50000J0D01*
G01*
X112100000Y-33450000D01*
G75*
G02*
X112050000Y-33400000I0J50000D01*
G01*
G37*
X115540000Y-32500000D03*
%TD*%
%TO.C,Da6*%
G36*
G01*
X125050000Y-33400000D02*
X125050000Y-31600000D01*
G75*
G02*
X125100000Y-31550000I50000J0D01*
G01*
X126900000Y-31550000D01*
G75*
G02*
X126950000Y-31600000I0J-50000D01*
G01*
X126950000Y-33400000D01*
G75*
G02*
X126900000Y-33450000I-50000J0D01*
G01*
X125100000Y-33450000D01*
G75*
G02*
X125050000Y-33400000I0J50000D01*
G01*
G37*
X128540000Y-32500000D03*
%TD*%
%TO.C,Da7*%
X135040000Y-32500000D03*
G36*
G01*
X131550000Y-33400000D02*
X131550000Y-31600000D01*
G75*
G02*
X131600000Y-31550000I50000J0D01*
G01*
X133400000Y-31550000D01*
G75*
G02*
X133450000Y-31600000I0J-50000D01*
G01*
X133450000Y-33400000D01*
G75*
G02*
X133400000Y-33450000I-50000J0D01*
G01*
X131600000Y-33450000D01*
G75*
G02*
X131550000Y-33400000I0J50000D01*
G01*
G37*
%TD*%
%TO.C,Da8*%
G36*
G01*
X138050000Y-33400000D02*
X138050000Y-31600000D01*
G75*
G02*
X138100000Y-31550000I50000J0D01*
G01*
X139900000Y-31550000D01*
G75*
G02*
X139950000Y-31600000I0J-50000D01*
G01*
X139950000Y-33400000D01*
G75*
G02*
X139900000Y-33450000I-50000J0D01*
G01*
X138100000Y-33450000D01*
G75*
G02*
X138050000Y-33400000I0J50000D01*
G01*
G37*
X141540000Y-32500000D03*
%TD*%
%TO.C,Db1*%
X89500000Y-82960000D03*
G36*
G01*
X90400000Y-86450000D02*
X88600000Y-86450000D01*
G75*
G02*
X88550000Y-86400000I0J50000D01*
G01*
X88550000Y-84600000D01*
G75*
G02*
X88600000Y-84550000I50000J0D01*
G01*
X90400000Y-84550000D01*
G75*
G02*
X90450000Y-84600000I0J-50000D01*
G01*
X90450000Y-86400000D01*
G75*
G02*
X90400000Y-86450000I-50000J0D01*
G01*
G37*
%TD*%
%TO.C,Db2*%
G36*
G01*
X90400000Y-79950000D02*
X88600000Y-79950000D01*
G75*
G02*
X88550000Y-79900000I0J50000D01*
G01*
X88550000Y-78100000D01*
G75*
G02*
X88600000Y-78050000I50000J0D01*
G01*
X90400000Y-78050000D01*
G75*
G02*
X90450000Y-78100000I0J-50000D01*
G01*
X90450000Y-79900000D01*
G75*
G02*
X90400000Y-79950000I-50000J0D01*
G01*
G37*
X89500000Y-76460000D03*
%TD*%
%TO.C,Db3*%
X89500000Y-69960000D03*
G36*
G01*
X90400000Y-73450000D02*
X88600000Y-73450000D01*
G75*
G02*
X88550000Y-73400000I0J50000D01*
G01*
X88550000Y-71600000D01*
G75*
G02*
X88600000Y-71550000I50000J0D01*
G01*
X90400000Y-71550000D01*
G75*
G02*
X90450000Y-71600000I0J-50000D01*
G01*
X90450000Y-73400000D01*
G75*
G02*
X90400000Y-73450000I-50000J0D01*
G01*
G37*
%TD*%
%TO.C,Db4*%
G36*
G01*
X90400000Y-66950000D02*
X88600000Y-66950000D01*
G75*
G02*
X88550000Y-66900000I0J50000D01*
G01*
X88550000Y-65100000D01*
G75*
G02*
X88600000Y-65050000I50000J0D01*
G01*
X90400000Y-65050000D01*
G75*
G02*
X90450000Y-65100000I0J-50000D01*
G01*
X90450000Y-66900000D01*
G75*
G02*
X90400000Y-66950000I-50000J0D01*
G01*
G37*
X89500000Y-63460000D03*
%TD*%
%TO.C,Db5*%
X89500000Y-56960000D03*
G36*
G01*
X90400000Y-60450000D02*
X88600000Y-60450000D01*
G75*
G02*
X88550000Y-60400000I0J50000D01*
G01*
X88550000Y-58600000D01*
G75*
G02*
X88600000Y-58550000I50000J0D01*
G01*
X90400000Y-58550000D01*
G75*
G02*
X90450000Y-58600000I0J-50000D01*
G01*
X90450000Y-60400000D01*
G75*
G02*
X90400000Y-60450000I-50000J0D01*
G01*
G37*
%TD*%
%TO.C,Db6*%
G36*
G01*
X90400000Y-53950000D02*
X88600000Y-53950000D01*
G75*
G02*
X88550000Y-53900000I0J50000D01*
G01*
X88550000Y-52100000D01*
G75*
G02*
X88600000Y-52050000I50000J0D01*
G01*
X90400000Y-52050000D01*
G75*
G02*
X90450000Y-52100000I0J-50000D01*
G01*
X90450000Y-53900000D01*
G75*
G02*
X90400000Y-53950000I-50000J0D01*
G01*
G37*
X89500000Y-50460000D03*
%TD*%
%TO.C,Db7*%
X89500000Y-43960000D03*
G36*
G01*
X90400000Y-47450000D02*
X88600000Y-47450000D01*
G75*
G02*
X88550000Y-47400000I0J50000D01*
G01*
X88550000Y-45600000D01*
G75*
G02*
X88600000Y-45550000I50000J0D01*
G01*
X90400000Y-45550000D01*
G75*
G02*
X90450000Y-45600000I0J-50000D01*
G01*
X90450000Y-47400000D01*
G75*
G02*
X90400000Y-47450000I-50000J0D01*
G01*
G37*
%TD*%
%TO.C,Db8*%
G36*
G01*
X90400000Y-40950000D02*
X88600000Y-40950000D01*
G75*
G02*
X88550000Y-40900000I0J50000D01*
G01*
X88550000Y-39100000D01*
G75*
G02*
X88600000Y-39050000I50000J0D01*
G01*
X90400000Y-39050000D01*
G75*
G02*
X90450000Y-39100000I0J-50000D01*
G01*
X90450000Y-40900000D01*
G75*
G02*
X90400000Y-40950000I-50000J0D01*
G01*
G37*
X89500000Y-37460000D03*
%TD*%
%TO.C,Dc1*%
G36*
G01*
X144600000Y-36550000D02*
X146400000Y-36550000D01*
G75*
G02*
X146450000Y-36600000I0J-50000D01*
G01*
X146450000Y-38400000D01*
G75*
G02*
X146400000Y-38450000I-50000J0D01*
G01*
X144600000Y-38450000D01*
G75*
G02*
X144550000Y-38400000I0J50000D01*
G01*
X144550000Y-36600000D01*
G75*
G02*
X144600000Y-36550000I50000J0D01*
G01*
G37*
X145500000Y-40040000D03*
%TD*%
%TO.C,Dc2*%
X145500000Y-46540000D03*
G36*
G01*
X144600000Y-43050000D02*
X146400000Y-43050000D01*
G75*
G02*
X146450000Y-43100000I0J-50000D01*
G01*
X146450000Y-44900000D01*
G75*
G02*
X146400000Y-44950000I-50000J0D01*
G01*
X144600000Y-44950000D01*
G75*
G02*
X144550000Y-44900000I0J50000D01*
G01*
X144550000Y-43100000D01*
G75*
G02*
X144600000Y-43050000I50000J0D01*
G01*
G37*
%TD*%
%TO.C,Dc3*%
X145500000Y-53040000D03*
G36*
G01*
X144600000Y-49550000D02*
X146400000Y-49550000D01*
G75*
G02*
X146450000Y-49600000I0J-50000D01*
G01*
X146450000Y-51400000D01*
G75*
G02*
X146400000Y-51450000I-50000J0D01*
G01*
X144600000Y-51450000D01*
G75*
G02*
X144550000Y-51400000I0J50000D01*
G01*
X144550000Y-49600000D01*
G75*
G02*
X144600000Y-49550000I50000J0D01*
G01*
G37*
%TD*%
%TO.C,Dc4*%
G36*
G01*
X144600000Y-56050000D02*
X146400000Y-56050000D01*
G75*
G02*
X146450000Y-56100000I0J-50000D01*
G01*
X146450000Y-57900000D01*
G75*
G02*
X146400000Y-57950000I-50000J0D01*
G01*
X144600000Y-57950000D01*
G75*
G02*
X144550000Y-57900000I0J50000D01*
G01*
X144550000Y-56100000D01*
G75*
G02*
X144600000Y-56050000I50000J0D01*
G01*
G37*
X145500000Y-59540000D03*
%TD*%
%TO.C,Dc5*%
X145500000Y-66040000D03*
G36*
G01*
X144600000Y-62550000D02*
X146400000Y-62550000D01*
G75*
G02*
X146450000Y-62600000I0J-50000D01*
G01*
X146450000Y-64400000D01*
G75*
G02*
X146400000Y-64450000I-50000J0D01*
G01*
X144600000Y-64450000D01*
G75*
G02*
X144550000Y-64400000I0J50000D01*
G01*
X144550000Y-62600000D01*
G75*
G02*
X144600000Y-62550000I50000J0D01*
G01*
G37*
%TD*%
%TO.C,Dc6*%
G36*
G01*
X144600000Y-69050000D02*
X146400000Y-69050000D01*
G75*
G02*
X146450000Y-69100000I0J-50000D01*
G01*
X146450000Y-70900000D01*
G75*
G02*
X146400000Y-70950000I-50000J0D01*
G01*
X144600000Y-70950000D01*
G75*
G02*
X144550000Y-70900000I0J50000D01*
G01*
X144550000Y-69100000D01*
G75*
G02*
X144600000Y-69050000I50000J0D01*
G01*
G37*
X145500000Y-72540000D03*
%TD*%
%TO.C,Dc7*%
X145500000Y-79040000D03*
G36*
G01*
X144600000Y-75550000D02*
X146400000Y-75550000D01*
G75*
G02*
X146450000Y-75600000I0J-50000D01*
G01*
X146450000Y-77400000D01*
G75*
G02*
X146400000Y-77450000I-50000J0D01*
G01*
X144600000Y-77450000D01*
G75*
G02*
X144550000Y-77400000I0J50000D01*
G01*
X144550000Y-75600000D01*
G75*
G02*
X144600000Y-75550000I50000J0D01*
G01*
G37*
%TD*%
%TO.C,Dc8*%
X145500000Y-85540000D03*
G36*
G01*
X144600000Y-82050000D02*
X146400000Y-82050000D01*
G75*
G02*
X146450000Y-82100000I0J-50000D01*
G01*
X146450000Y-83900000D01*
G75*
G02*
X146400000Y-83950000I-50000J0D01*
G01*
X144600000Y-83950000D01*
G75*
G02*
X144550000Y-83900000I0J50000D01*
G01*
X144550000Y-82100000D01*
G75*
G02*
X144600000Y-82050000I50000J0D01*
G01*
G37*
%TD*%
%TO.C,Dd1*%
G36*
G01*
X92550000Y-93900000D02*
X92550000Y-92100000D01*
G75*
G02*
X92600000Y-92050000I50000J0D01*
G01*
X94400000Y-92050000D01*
G75*
G02*
X94450000Y-92100000I0J-50000D01*
G01*
X94450000Y-93900000D01*
G75*
G02*
X94400000Y-93950000I-50000J0D01*
G01*
X92600000Y-93950000D01*
G75*
G02*
X92550000Y-93900000I0J50000D01*
G01*
G37*
X96040000Y-93000000D03*
%TD*%
%TO.C,Dd2*%
X102540000Y-93000000D03*
G36*
G01*
X99050000Y-93900000D02*
X99050000Y-92100000D01*
G75*
G02*
X99100000Y-92050000I50000J0D01*
G01*
X100900000Y-92050000D01*
G75*
G02*
X100950000Y-92100000I0J-50000D01*
G01*
X100950000Y-93900000D01*
G75*
G02*
X100900000Y-93950000I-50000J0D01*
G01*
X99100000Y-93950000D01*
G75*
G02*
X99050000Y-93900000I0J50000D01*
G01*
G37*
%TD*%
%TO.C,Dd3*%
G36*
G01*
X105550000Y-93900000D02*
X105550000Y-92100000D01*
G75*
G02*
X105600000Y-92050000I50000J0D01*
G01*
X107400000Y-92050000D01*
G75*
G02*
X107450000Y-92100000I0J-50000D01*
G01*
X107450000Y-93900000D01*
G75*
G02*
X107400000Y-93950000I-50000J0D01*
G01*
X105600000Y-93950000D01*
G75*
G02*
X105550000Y-93900000I0J50000D01*
G01*
G37*
X109040000Y-93000000D03*
%TD*%
%TO.C,Dd4*%
X115540000Y-93000000D03*
G36*
G01*
X112050000Y-93900000D02*
X112050000Y-92100000D01*
G75*
G02*
X112100000Y-92050000I50000J0D01*
G01*
X113900000Y-92050000D01*
G75*
G02*
X113950000Y-92100000I0J-50000D01*
G01*
X113950000Y-93900000D01*
G75*
G02*
X113900000Y-93950000I-50000J0D01*
G01*
X112100000Y-93950000D01*
G75*
G02*
X112050000Y-93900000I0J50000D01*
G01*
G37*
%TD*%
%TO.C,Dd5*%
G36*
G01*
X118550000Y-93900000D02*
X118550000Y-92100000D01*
G75*
G02*
X118600000Y-92050000I50000J0D01*
G01*
X120400000Y-92050000D01*
G75*
G02*
X120450000Y-92100000I0J-50000D01*
G01*
X120450000Y-93900000D01*
G75*
G02*
X120400000Y-93950000I-50000J0D01*
G01*
X118600000Y-93950000D01*
G75*
G02*
X118550000Y-93900000I0J50000D01*
G01*
G37*
X122040000Y-93000000D03*
%TD*%
%TO.C,Dd6*%
X128540000Y-93000000D03*
G36*
G01*
X125050000Y-93900000D02*
X125050000Y-92100000D01*
G75*
G02*
X125100000Y-92050000I50000J0D01*
G01*
X126900000Y-92050000D01*
G75*
G02*
X126950000Y-92100000I0J-50000D01*
G01*
X126950000Y-93900000D01*
G75*
G02*
X126900000Y-93950000I-50000J0D01*
G01*
X125100000Y-93950000D01*
G75*
G02*
X125050000Y-93900000I0J50000D01*
G01*
G37*
%TD*%
%TO.C,Dd7*%
G36*
G01*
X131550000Y-93900000D02*
X131550000Y-92100000D01*
G75*
G02*
X131600000Y-92050000I50000J0D01*
G01*
X133400000Y-92050000D01*
G75*
G02*
X133450000Y-92100000I0J-50000D01*
G01*
X133450000Y-93900000D01*
G75*
G02*
X133400000Y-93950000I-50000J0D01*
G01*
X131600000Y-93950000D01*
G75*
G02*
X131550000Y-93900000I0J50000D01*
G01*
G37*
X135040000Y-93000000D03*
%TD*%
%TO.C,Dd8*%
X141540000Y-93000000D03*
G36*
G01*
X138050000Y-93900000D02*
X138050000Y-92100000D01*
G75*
G02*
X138100000Y-92050000I50000J0D01*
G01*
X139900000Y-92050000D01*
G75*
G02*
X139950000Y-92100000I0J-50000D01*
G01*
X139950000Y-93900000D01*
G75*
G02*
X139900000Y-93950000I-50000J0D01*
G01*
X138100000Y-93950000D01*
G75*
G02*
X138050000Y-93900000I0J50000D01*
G01*
G37*
%TD*%
%TO.C,De2*%
X89500000Y-139460000D03*
G36*
G01*
X90400000Y-142950000D02*
X88600000Y-142950000D01*
G75*
G02*
X88550000Y-142900000I0J50000D01*
G01*
X88550000Y-141100000D01*
G75*
G02*
X88600000Y-141050000I50000J0D01*
G01*
X90400000Y-141050000D01*
G75*
G02*
X90450000Y-141100000I0J-50000D01*
G01*
X90450000Y-142900000D01*
G75*
G02*
X90400000Y-142950000I-50000J0D01*
G01*
G37*
%TD*%
%TO.C,De3*%
G36*
G01*
X90400000Y-136450000D02*
X88600000Y-136450000D01*
G75*
G02*
X88550000Y-136400000I0J50000D01*
G01*
X88550000Y-134600000D01*
G75*
G02*
X88600000Y-134550000I50000J0D01*
G01*
X90400000Y-134550000D01*
G75*
G02*
X90450000Y-134600000I0J-50000D01*
G01*
X90450000Y-136400000D01*
G75*
G02*
X90400000Y-136450000I-50000J0D01*
G01*
G37*
X89500000Y-132960000D03*
%TD*%
%TO.C,De4*%
X89500000Y-126460000D03*
G36*
G01*
X90400000Y-129950000D02*
X88600000Y-129950000D01*
G75*
G02*
X88550000Y-129900000I0J50000D01*
G01*
X88550000Y-128100000D01*
G75*
G02*
X88600000Y-128050000I50000J0D01*
G01*
X90400000Y-128050000D01*
G75*
G02*
X90450000Y-128100000I0J-50000D01*
G01*
X90450000Y-129900000D01*
G75*
G02*
X90400000Y-129950000I-50000J0D01*
G01*
G37*
%TD*%
%TO.C,De5*%
G36*
G01*
X90400000Y-123450000D02*
X88600000Y-123450000D01*
G75*
G02*
X88550000Y-123400000I0J50000D01*
G01*
X88550000Y-121600000D01*
G75*
G02*
X88600000Y-121550000I50000J0D01*
G01*
X90400000Y-121550000D01*
G75*
G02*
X90450000Y-121600000I0J-50000D01*
G01*
X90450000Y-123400000D01*
G75*
G02*
X90400000Y-123450000I-50000J0D01*
G01*
G37*
X89500000Y-119960000D03*
%TD*%
%TO.C,De7*%
G36*
G01*
X90400000Y-110450000D02*
X88600000Y-110450000D01*
G75*
G02*
X88550000Y-110400000I0J50000D01*
G01*
X88550000Y-108600000D01*
G75*
G02*
X88600000Y-108550000I50000J0D01*
G01*
X90400000Y-108550000D01*
G75*
G02*
X90450000Y-108600000I0J-50000D01*
G01*
X90450000Y-110400000D01*
G75*
G02*
X90400000Y-110450000I-50000J0D01*
G01*
G37*
X89500000Y-106960000D03*
%TD*%
%TO.C,De8*%
X89500000Y-100460000D03*
G36*
G01*
X90400000Y-103950000D02*
X88600000Y-103950000D01*
G75*
G02*
X88550000Y-103900000I0J50000D01*
G01*
X88550000Y-102100000D01*
G75*
G02*
X88600000Y-102050000I50000J0D01*
G01*
X90400000Y-102050000D01*
G75*
G02*
X90450000Y-102100000I0J-50000D01*
G01*
X90450000Y-103900000D01*
G75*
G02*
X90400000Y-103950000I-50000J0D01*
G01*
G37*
%TD*%
%TO.C,Df1*%
G36*
G01*
X144600000Y-99550000D02*
X146400000Y-99550000D01*
G75*
G02*
X146450000Y-99600000I0J-50000D01*
G01*
X146450000Y-101400000D01*
G75*
G02*
X146400000Y-101450000I-50000J0D01*
G01*
X144600000Y-101450000D01*
G75*
G02*
X144550000Y-101400000I0J50000D01*
G01*
X144550000Y-99600000D01*
G75*
G02*
X144600000Y-99550000I50000J0D01*
G01*
G37*
X145500000Y-103040000D03*
%TD*%
%TO.C,Df2*%
X145500000Y-109540000D03*
G36*
G01*
X144600000Y-106050000D02*
X146400000Y-106050000D01*
G75*
G02*
X146450000Y-106100000I0J-50000D01*
G01*
X146450000Y-107900000D01*
G75*
G02*
X146400000Y-107950000I-50000J0D01*
G01*
X144600000Y-107950000D01*
G75*
G02*
X144550000Y-107900000I0J50000D01*
G01*
X144550000Y-106100000D01*
G75*
G02*
X144600000Y-106050000I50000J0D01*
G01*
G37*
%TD*%
%TO.C,Df3*%
G36*
G01*
X144600000Y-112550000D02*
X146400000Y-112550000D01*
G75*
G02*
X146450000Y-112600000I0J-50000D01*
G01*
X146450000Y-114400000D01*
G75*
G02*
X146400000Y-114450000I-50000J0D01*
G01*
X144600000Y-114450000D01*
G75*
G02*
X144550000Y-114400000I0J50000D01*
G01*
X144550000Y-112600000D01*
G75*
G02*
X144600000Y-112550000I50000J0D01*
G01*
G37*
X145500000Y-116040000D03*
%TD*%
%TO.C,Df4*%
X145500000Y-122540000D03*
G36*
G01*
X144600000Y-119050000D02*
X146400000Y-119050000D01*
G75*
G02*
X146450000Y-119100000I0J-50000D01*
G01*
X146450000Y-120900000D01*
G75*
G02*
X146400000Y-120950000I-50000J0D01*
G01*
X144600000Y-120950000D01*
G75*
G02*
X144550000Y-120900000I0J50000D01*
G01*
X144550000Y-119100000D01*
G75*
G02*
X144600000Y-119050000I50000J0D01*
G01*
G37*
%TD*%
%TO.C,Df5*%
G36*
G01*
X144600000Y-125550000D02*
X146400000Y-125550000D01*
G75*
G02*
X146450000Y-125600000I0J-50000D01*
G01*
X146450000Y-127400000D01*
G75*
G02*
X146400000Y-127450000I-50000J0D01*
G01*
X144600000Y-127450000D01*
G75*
G02*
X144550000Y-127400000I0J50000D01*
G01*
X144550000Y-125600000D01*
G75*
G02*
X144600000Y-125550000I50000J0D01*
G01*
G37*
X145500000Y-129040000D03*
%TD*%
%TO.C,Df6*%
X145500000Y-135540000D03*
G36*
G01*
X144600000Y-132050000D02*
X146400000Y-132050000D01*
G75*
G02*
X146450000Y-132100000I0J-50000D01*
G01*
X146450000Y-133900000D01*
G75*
G02*
X146400000Y-133950000I-50000J0D01*
G01*
X144600000Y-133950000D01*
G75*
G02*
X144550000Y-133900000I0J50000D01*
G01*
X144550000Y-132100000D01*
G75*
G02*
X144600000Y-132050000I50000J0D01*
G01*
G37*
%TD*%
%TO.C,Df7*%
G36*
G01*
X144600000Y-138550000D02*
X146400000Y-138550000D01*
G75*
G02*
X146450000Y-138600000I0J-50000D01*
G01*
X146450000Y-140400000D01*
G75*
G02*
X146400000Y-140450000I-50000J0D01*
G01*
X144600000Y-140450000D01*
G75*
G02*
X144550000Y-140400000I0J50000D01*
G01*
X144550000Y-138600000D01*
G75*
G02*
X144600000Y-138550000I50000J0D01*
G01*
G37*
X145500000Y-142040000D03*
%TD*%
%TO.C,Df8*%
X145500000Y-148540000D03*
G36*
G01*
X144600000Y-145050000D02*
X146400000Y-145050000D01*
G75*
G02*
X146450000Y-145100000I0J-50000D01*
G01*
X146450000Y-146900000D01*
G75*
G02*
X146400000Y-146950000I-50000J0D01*
G01*
X144600000Y-146950000D01*
G75*
G02*
X144550000Y-146900000I0J50000D01*
G01*
X144550000Y-145100000D01*
G75*
G02*
X144600000Y-145050000I50000J0D01*
G01*
G37*
%TD*%
%TO.C,Dg1*%
G36*
G01*
X142450000Y-152600000D02*
X142450000Y-154400000D01*
G75*
G02*
X142400000Y-154450000I-50000J0D01*
G01*
X140600000Y-154450000D01*
G75*
G02*
X140550000Y-154400000I0J50000D01*
G01*
X140550000Y-152600000D01*
G75*
G02*
X140600000Y-152550000I50000J0D01*
G01*
X142400000Y-152550000D01*
G75*
G02*
X142450000Y-152600000I0J-50000D01*
G01*
G37*
X138960000Y-153500000D03*
%TD*%
%TO.C,Dg3*%
G36*
G01*
X129450000Y-152600000D02*
X129450000Y-154400000D01*
G75*
G02*
X129400000Y-154450000I-50000J0D01*
G01*
X127600000Y-154450000D01*
G75*
G02*
X127550000Y-154400000I0J50000D01*
G01*
X127550000Y-152600000D01*
G75*
G02*
X127600000Y-152550000I50000J0D01*
G01*
X129400000Y-152550000D01*
G75*
G02*
X129450000Y-152600000I0J-50000D01*
G01*
G37*
X125960000Y-153500000D03*
%TD*%
%TO.C,Dg4*%
X119460000Y-153500000D03*
G36*
G01*
X122950000Y-152600000D02*
X122950000Y-154400000D01*
G75*
G02*
X122900000Y-154450000I-50000J0D01*
G01*
X121100000Y-154450000D01*
G75*
G02*
X121050000Y-154400000I0J50000D01*
G01*
X121050000Y-152600000D01*
G75*
G02*
X121100000Y-152550000I50000J0D01*
G01*
X122900000Y-152550000D01*
G75*
G02*
X122950000Y-152600000I0J-50000D01*
G01*
G37*
%TD*%
%TO.C,Dg5*%
G36*
G01*
X116450000Y-152600000D02*
X116450000Y-154400000D01*
G75*
G02*
X116400000Y-154450000I-50000J0D01*
G01*
X114600000Y-154450000D01*
G75*
G02*
X114550000Y-154400000I0J50000D01*
G01*
X114550000Y-152600000D01*
G75*
G02*
X114600000Y-152550000I50000J0D01*
G01*
X116400000Y-152550000D01*
G75*
G02*
X116450000Y-152600000I0J-50000D01*
G01*
G37*
X112960000Y-153500000D03*
%TD*%
%TO.C,Dg6*%
G36*
G01*
X109950000Y-152600000D02*
X109950000Y-154400000D01*
G75*
G02*
X109900000Y-154450000I-50000J0D01*
G01*
X108100000Y-154450000D01*
G75*
G02*
X108050000Y-154400000I0J50000D01*
G01*
X108050000Y-152600000D01*
G75*
G02*
X108100000Y-152550000I50000J0D01*
G01*
X109900000Y-152550000D01*
G75*
G02*
X109950000Y-152600000I0J-50000D01*
G01*
G37*
X106460000Y-153500000D03*
%TD*%
%TO.C,Dg7*%
G36*
G01*
X103450000Y-152600000D02*
X103450000Y-154400000D01*
G75*
G02*
X103400000Y-154450000I-50000J0D01*
G01*
X101600000Y-154450000D01*
G75*
G02*
X101550000Y-154400000I0J50000D01*
G01*
X101550000Y-152600000D01*
G75*
G02*
X101600000Y-152550000I50000J0D01*
G01*
X103400000Y-152550000D01*
G75*
G02*
X103450000Y-152600000I0J-50000D01*
G01*
G37*
X99960000Y-153500000D03*
%TD*%
%TO.C,Dg8*%
X93460000Y-153500000D03*
G36*
G01*
X96950000Y-152600000D02*
X96950000Y-154400000D01*
G75*
G02*
X96900000Y-154450000I-50000J0D01*
G01*
X95100000Y-154450000D01*
G75*
G02*
X95050000Y-154400000I0J50000D01*
G01*
X95050000Y-152600000D01*
G75*
G02*
X95100000Y-152550000I50000J0D01*
G01*
X96900000Y-152550000D01*
G75*
G02*
X96950000Y-152600000I0J-50000D01*
G01*
G37*
%TD*%
D11*
%TO.C,J1*%
X152500000Y-76780000D03*
X152500000Y-74240000D03*
X152500000Y-71700000D03*
X152500000Y-69160000D03*
X152500000Y-66620000D03*
X152500000Y-64080000D03*
X152500000Y-61540000D03*
G36*
G01*
X151600000Y-59850000D02*
X151600000Y-58150000D01*
G75*
G02*
X151650000Y-58100000I50000J0D01*
G01*
X153350000Y-58100000D01*
G75*
G02*
X153400000Y-58150000I0J-50000D01*
G01*
X153400000Y-59850000D01*
G75*
G02*
X153350000Y-59900000I-50000J0D01*
G01*
X151650000Y-59900000D01*
G75*
G02*
X151600000Y-59850000I0J50000D01*
G01*
G37*
%TD*%
%TO.C,J2*%
G36*
G01*
X81600000Y-59850000D02*
X81600000Y-58150000D01*
G75*
G02*
X81650000Y-58100000I50000J0D01*
G01*
X83350000Y-58100000D01*
G75*
G02*
X83400000Y-58150000I0J-50000D01*
G01*
X83400000Y-59850000D01*
G75*
G02*
X83350000Y-59900000I-50000J0D01*
G01*
X81650000Y-59900000D01*
G75*
G02*
X81600000Y-59850000I0J50000D01*
G01*
G37*
X82500000Y-61540000D03*
X82500000Y-64080000D03*
X82500000Y-66620000D03*
X82500000Y-69160000D03*
X82500000Y-71700000D03*
X82500000Y-74240000D03*
X82500000Y-76780000D03*
%TD*%
%TO.C,J3*%
G36*
G01*
X151600000Y-86350000D02*
X151600000Y-84650000D01*
G75*
G02*
X151650000Y-84600000I50000J0D01*
G01*
X153350000Y-84600000D01*
G75*
G02*
X153400000Y-84650000I0J-50000D01*
G01*
X153400000Y-86350000D01*
G75*
G02*
X153350000Y-86400000I-50000J0D01*
G01*
X151650000Y-86400000D01*
G75*
G02*
X151600000Y-86350000I0J50000D01*
G01*
G37*
X152500000Y-88040000D03*
X152500000Y-90580000D03*
X152500000Y-93120000D03*
X152500000Y-95660000D03*
X152500000Y-98200000D03*
X152500000Y-100740000D03*
X152500000Y-103280000D03*
%TD*%
%TO.C,J4*%
X82500000Y-103280000D03*
X82500000Y-100740000D03*
X82500000Y-98200000D03*
X82500000Y-95660000D03*
X82500000Y-93120000D03*
X82500000Y-90580000D03*
X82500000Y-88040000D03*
G36*
G01*
X81600000Y-86350000D02*
X81600000Y-84650000D01*
G75*
G02*
X81650000Y-84600000I50000J0D01*
G01*
X83350000Y-84600000D01*
G75*
G02*
X83400000Y-84650000I0J-50000D01*
G01*
X83400000Y-86350000D01*
G75*
G02*
X83350000Y-86400000I-50000J0D01*
G01*
X81650000Y-86400000D01*
G75*
G02*
X81600000Y-86350000I0J50000D01*
G01*
G37*
%TD*%
M02*
